<svg width="49" height="61" viewBox="0 0 49 61" fill="none" xmlns="http://www.w3.org/2000/svg">
<path d="M17.15 3.05062C10.6282 6.83983 6.37 13.8383 6.37 20.9844C6.37 24.3797 7.29031 27.7005 9.08028 30.8205C12.789 37.2848 19.573 40.682 26.46 40.9768V43.9201H21.56C21.0187 43.9201 20.58 44.357 20.58 44.896C20.58 45.4351 21.0187 45.872 21.56 45.872H33.32C33.8612 45.872 34.3 45.4351 34.3 44.896C34.3 44.357 33.8612 43.9201 33.32 43.9201H28.42V40.9616C31.3594 40.8072 34.5621 39.9707 37.24 38.4148C37.6825 38.1581 37.8517 37.5246 37.5959 37.0828C37.3401 36.6409 36.7048 36.4695 36.26 36.7222C33.6481 38.2397 30.2796 39.0401 27.44 39.0401C20.8362 39.0401 14.2841 35.9522 10.78 29.8445C9.14251 26.9903 8.33 24.0299 8.33 20.9844C8.33 14.6177 12.1982 8.18978 18.13 4.74334C18.5214 4.53124 18.7283 4.03055 18.6003 3.60549C18.3037 2.96165 17.6863 2.77683 17.15 3.05062ZM26.9959 5.44481C26.6171 5.44451 26.2395 5.44871 25.8628 5.47531C20.8401 5.83048 16.0704 8.57565 13.3678 13.2375C9.04368 20.6964 11.6204 30.2656 19.11 34.5719C26.5995 38.8783 36.2081 36.3121 40.5322 28.8533C44.8563 21.3943 42.2795 11.8252 34.79 7.51878C32.3324 6.10574 29.6475 5.44695 26.9959 5.44481Z" fill="white"/>
</svg>
