<svg width="41" height="35" viewBox="0 0 41 35" fill="none" xmlns="http://www.w3.org/2000/svg">
<path fill-rule="evenodd" clip-rule="evenodd" d="M24.7708 14.6157C27.4282 16.1343 29.2315 18.8866 29.2315 22.1134V24.8657C29.2315 26.4792 27.9028 27.713 26.3842 27.713H14.6157C13.0023 27.713 11.7685 26.4792 11.7685 24.8657V22.1134C11.7685 18.9815 13.5717 16.1343 16.1342 14.6157C17.368 15.6597 18.8865 16.2292 20.5 16.2292C22.1134 16.2292 23.6319 15.6597 24.7708 14.6157Z" fill="white"/>
<path fill-rule="evenodd" clip-rule="evenodd" d="M20.5 4.08102C23.4421 4.08102 25.8148 6.4537 25.8148 9.39583C25.8148 12.338 23.4421 14.8056 20.5 14.8056C17.5579 14.8056 15.0903 12.338 15.0903 9.39583C15.0903 6.4537 17.5579 4.08102 20.5 4.08102Z" fill="white"/>
<path fill-rule="evenodd" clip-rule="evenodd" d="M36.5394 10.6296C39.1968 12.0532 41 14.8056 41 18.1273V20.7847C41 22.3981 39.6713 23.6319 38.1528 23.6319H30.8449V22.1134C30.8449 18.6019 29.0417 15.375 26.0995 13.5718C26.669 12.8125 27.0486 11.9583 27.2384 11.0093C27.5232 10.8195 27.713 10.7245 27.9028 10.6296C29.0417 11.5787 30.5602 12.1482 32.2685 12.1482C33.882 12.1482 35.4005 11.5787 36.5394 10.6296Z" fill="white"/>
<path fill-rule="evenodd" clip-rule="evenodd" d="M32.2685 0C35.2107 0 37.5834 2.37269 37.5834 5.31482C37.5834 8.35186 35.2107 10.7245 32.2685 10.7245C29.3264 10.7245 26.8588 8.35186 26.8588 5.31482C26.8588 2.37269 29.3264 0 32.2685 0Z" fill="white"/>
<path fill-rule="evenodd" clip-rule="evenodd" d="M13.0972 10.6296C13.287 10.7245 13.4769 10.8195 13.6667 11.0093C13.9514 11.9583 14.331 12.8125 14.9005 13.5718C11.9583 15.375 10.1551 18.6019 10.1551 22.1134V23.6319H2.84722C1.3287 23.6319 0 22.3981 0 20.7847V18.1273C0 14.9005 1.80324 12.0532 4.36574 10.6296C5.59954 11.5787 7.11806 12.1482 8.73148 12.1482C10.3449 12.1482 11.8634 11.5787 13.0972 10.6296Z" fill="white"/>
<path fill-rule="evenodd" clip-rule="evenodd" d="M8.7315 0C11.6736 0 14.0463 2.37269 14.0463 5.31482C14.0463 8.35186 11.6736 10.7245 8.7315 10.7245C5.78937 10.7245 3.41669 8.35186 3.41669 5.31482C3.41669 2.37269 5.78937 0 8.7315 0Z" fill="white"/>
</svg>
