<svg width="49" height="62" viewBox="0 0 49 62" fill="none" xmlns="http://www.w3.org/2000/svg">
<path d="M34.447 23.373C31.85 25.823 28.322 27.293 24.5 27.293C20.678 27.293 17.15 25.823 14.553 23.373C9.75099 27.244 6.61499 33.271 6.61499 37.926C6.61499 45.325 9.30999 47.775 24.5 47.775C39.69 47.775 42.385 45.325 42.385 37.926C42.385 33.271 39.249 27.244 34.447 23.373Z" fill="white"/>
<path d="M24.5 24.059C30.8054 24.059 35.917 18.9474 35.917 12.642C35.917 6.33657 30.8054 1.22501 24.5 1.22501C18.1946 1.22501 13.083 6.33657 13.083 12.642C13.083 18.9474 18.1946 24.059 24.5 24.059Z" fill="white"/>
</svg>
