<svg width="49" height="61" viewBox="0 0 49 61" fill="none" xmlns="http://www.w3.org/2000/svg">
<path d="M24.5 1.22C11.662 1.22 1.22498 11.6144 1.22498 24.4C1.22498 37.1856 11.662 47.58 24.5 47.58C37.338 47.58 47.775 37.1856 47.775 24.4C47.775 11.6144 37.338 1.22 24.5 1.22ZM24.5 14.4936C28.518 14.4936 31.801 17.7632 31.801 21.7648C31.801 25.7664 28.518 29.036 24.5 29.036C20.482 29.036 17.199 25.7664 17.199 21.7648C17.199 17.7632 20.482 14.4936 24.5 14.4936ZM11.76 38.4544V37.3808C11.76 34.3064 14.259 31.7688 17.395 31.7688H31.605C34.692 31.7688 37.24 34.2576 37.24 37.3808V38.4544C33.859 41.48 29.4 43.3344 24.5 43.3344C19.6 43.3344 15.141 41.48 11.76 38.4544Z" fill="#FFFBFB"/>
</svg>
