<svg width="49" height="62" viewBox="0 0 49 62" fill="none" xmlns="http://www.w3.org/2000/svg">
<path d="M24.4924 7.72587C24.3537 7.72587 24.2656 7.74058 24.2167 7.74107C24.1028 7.74332 23.9926 7.7816 23.9018 7.85038C23.8111 7.91916 23.7444 8.0149 23.7114 8.12391C23.4537 9.06574 23.1106 10.0238 22.6854 10.7423C22.2603 11.4609 21.774 11.9115 21.2614 12.0439C20.75 12.1761 20.0965 12.0228 19.3779 11.5998C18.6594 11.177 17.9015 10.5059 17.2189 9.80823C17.1363 9.72507 17.0288 9.67113 16.9127 9.65456C16.7967 9.63799 16.6784 9.6597 16.5758 9.71641C15.0342 10.5431 13.6334 11.5909 12.4261 12.8402C12.3394 12.9238 12.2832 13.0342 12.2666 13.1535C12.2499 13.2728 12.2737 13.3943 12.3342 13.4986C12.8181 14.3448 13.2425 15.2353 13.452 16.0404C13.6616 16.8455 13.6427 17.516 13.3754 17.9698C13.1081 18.4241 12.5419 18.7534 11.737 18.9652C10.9322 19.1769 9.93947 19.2503 8.96545 19.2407C8.84437 19.2372 8.72565 19.2746 8.62843 19.3469C8.5312 19.4191 8.46114 19.522 8.42953 19.6389C7.96296 21.1793 7.72516 22.7981 7.72516 24.4929V24.7992C7.7284 24.915 7.76888 25.0267 7.84059 25.1177C7.9123 25.2087 8.01143 25.2743 8.12328 25.3045C9.06296 25.561 10.0104 25.9104 10.7264 26.3304C11.4425 26.7505 11.896 27.2302 12.0279 27.7392C12.1603 28.2491 11.9917 28.8885 11.5686 29.6073C11.1454 30.3261 10.4896 31.0834 9.79237 31.7664C9.70921 31.849 9.65525 31.9565 9.63866 32.0725C9.62207 32.1886 9.64376 32.3069 9.70045 32.4095C10.5276 33.9557 11.5736 35.3495 12.8242 36.5592C12.9074 36.6365 13.013 36.6855 13.1257 36.6992C13.2385 36.713 13.3527 36.6908 13.452 36.6358C14.3009 36.1513 15.229 35.7277 16.0399 35.5179C16.8507 35.3083 17.5304 35.3424 17.9845 35.6098C18.4394 35.8776 18.7706 36.4563 18.9799 37.2636C19.189 38.0708 19.2526 39.0592 19.2402 40.0352C19.2367 40.1563 19.274 40.275 19.3463 40.3722C19.4185 40.4694 19.5214 40.5395 19.6383 40.5711C21.1786 41.0376 22.7975 41.2754 24.4924 41.2754C24.6256 41.2754 24.7086 41.2758 24.7374 41.2754C24.8532 41.2722 24.9649 41.2317 25.0559 41.16C25.1469 41.0883 25.2124 40.9892 25.2427 40.8773C25.503 39.936 25.856 38.9931 26.2839 38.2742C26.7118 37.5552 27.1957 37.1054 27.7079 36.9727C28.2203 36.8399 28.8734 36.9913 29.5914 37.4167C30.3095 37.8421 31.0673 38.5073 31.7504 39.2083C31.8331 39.2914 31.9406 39.3454 32.0566 39.362C32.1727 39.3786 32.291 39.3569 32.3936 39.3002C33.9456 38.4713 35.3461 37.415 36.5586 36.1611C36.6393 36.0766 36.6904 35.9683 36.7042 35.8523C36.718 35.7363 36.6938 35.619 36.6352 35.5179C36.1473 34.6696 35.7139 33.7558 35.502 32.9454C35.2902 32.1351 35.326 31.4719 35.5939 31.0161C35.8636 30.5569 36.4201 30.2014 37.2324 29.9902C38.0445 29.7789 39.0695 29.7025 40.0499 29.7145C40.1644 29.7165 40.2767 29.682 40.3703 29.6159C40.4639 29.5498 40.534 29.4556 40.5704 29.347C41.0317 27.8141 41.2749 26.1762 41.2749 24.4929C41.2749 24.3564 41.2597 24.2882 41.2597 24.2479C41.2607 24.1314 41.2239 24.0178 41.1549 23.9239C41.0859 23.83 40.9883 23.7611 40.8768 23.7273C39.9373 23.469 38.9895 23.1266 38.2738 22.7014C37.558 22.2761 37.1055 21.7897 36.9722 21.2773C36.8389 20.7653 36.9962 20.112 37.4163 19.3939C37.8364 18.6757 38.4958 17.9177 39.1925 17.2348C39.2757 17.1522 39.3296 17.0447 39.3462 16.9287C39.3628 16.8126 39.341 16.6943 39.2843 16.5917C38.4571 15.0468 37.4111 13.6511 36.1606 12.442C36.075 12.3577 35.9638 12.3044 35.8445 12.2906C35.7253 12.2767 35.6048 12.303 35.5022 12.3654C34.6538 12.8502 33.7521 13.2735 32.945 13.4832C32.1378 13.693 31.4721 13.6756 31.0156 13.4067C30.5561 13.1361 30.2162 12.5466 30.005 11.7377C29.7938 10.9287 29.7175 9.93004 29.7293 8.95073C29.7304 8.83424 29.6936 8.72059 29.6246 8.62674C29.5556 8.5329 29.458 8.46392 29.3466 8.43016C27.829 7.97216 26.2327 7.73219 24.5691 7.72573C24.5436 7.72391 24.518 7.72391 24.4925 7.72573L24.4924 7.72587ZM24.4924 17.8168C28.1763 17.8168 31.1839 20.8092 31.1839 24.4931C31.1839 28.177 28.1763 31.1846 24.4924 31.1846C20.8084 31.1846 17.8161 28.177 17.8161 24.4931C17.8161 20.8092 20.8084 17.8168 24.4924 17.8168ZM24.4924 18.8887C21.391 18.8887 18.8879 21.3918 18.8879 24.4931C18.8879 27.5944 21.391 30.1128 24.4924 30.1128C27.5937 30.1128 30.112 27.5944 30.112 24.4931C30.112 21.3918 27.5937 18.8887 24.4924 18.8887Z" fill="white"/>
</svg>
