<svg width="90" height="90" viewBox="0 0 90 90" fill="none" xmlns="http://www.w3.org/2000/svg">
<path d="M45 0C20.1 0 0 20.1 0 45C0 69.9 20.1 90 45 90C69.9 90 90 69.9 90 45C90 20.1 69.9 0 45 0ZM67.9 60.2C70 62.3 70 65.7 67.9 67.8C66.8 68.9 65.5 69.4 64.1 69.4C62.7 69.4 61.3 68.9 60.3 67.8L45.3 52.8L30.2 67.8C29.1 68.9 27.8 69.4 26.4 69.4C25 69.4 23.6 68.9 22.6 67.8C20.5 65.7 20.5 62.3 22.6 60.2L37.7 45.1L22.6 30.1C20.5 28 20.5 24.6 22.6 22.5C24.7 20.4 28.1 20.4 30.2 22.5L45.3 37.6L60.4 22.5C62.5 20.4 65.9 20.4 68 22.5C70.1 24.6 70.1 28 68 30.1L52.9 45.2L67.9 60.2Z" fill="white"/>
</svg>
