<svg width="100" height="100" viewBox="0 0 100 100" fill="none" xmlns="http://www.w3.org/2000/svg">
<path fill-rule="evenodd" clip-rule="evenodd" d="M58.5488 51C64.1792 54.2465 68 60.1305 68 67.0289V72.9129C68 76.3623 65.1848 79 61.9672 79H37.0325C33.6141 79 31 76.3623 31 72.9129V67.0289C31 60.3334 34.8206 54.2465 40.2499 51C42.864 53.2319 46.0814 54.4494 49.5 54.4494C52.9184 54.4494 56.1358 53.2319 58.5488 51Z" fill="white"/>
<path fill-rule="evenodd" clip-rule="evenodd" d="M49.6018 29C55.9115 29 61 34.0885 61 40.3982C61 46.708 55.9115 52 49.6018 52C43.2921 52 38 46.708 38 40.3982C38 34.0885 43.2921 29 49.6018 29Z" fill="white"/>
<path fill-rule="evenodd" clip-rule="evenodd" d="M83.4205 43C89.1275 45.9562 93 51.6717 93 58.5694V64.0876C93 67.4379 90.1465 70 86.8854 70H71.1911V66.8467C71.1911 59.5549 67.3186 52.8541 61 49.1096C62.223 47.5329 63.0383 45.7591 63.4459 43.7885C64.0575 43.3943 64.4651 43.1971 64.8727 43C67.3186 44.9709 70.5797 46.1535 74.2484 46.1535C77.7135 46.1535 80.9746 44.9709 83.4205 43Z" fill="white"/>
<path fill-rule="evenodd" clip-rule="evenodd" d="M74.0972 21C80.1327 21 85 25.8673 85 31.9027C85 38.1328 80.1327 43 74.0972 43C68.0619 43 63 38.1328 63 31.9027C63 25.8673 68.0619 21 74.0972 21Z" fill="white"/>
<path fill-rule="evenodd" clip-rule="evenodd" d="M34.1273 43C34.5349 43.1971 34.9427 43.3943 35.3503 43.7885C35.9617 45.7591 36.777 47.5329 38 49.1096C31.6814 52.8541 27.8089 59.5549 27.8089 66.8467V70H12.1146C8.85349 70 6 67.4379 6 64.0876V58.5694C6 51.8688 9.8726 45.9562 15.3758 43C18.0255 44.9709 21.2866 46.1535 24.7515 46.1535C28.2165 46.1535 31.4776 44.9709 34.1273 43Z" fill="white"/>
<path fill-rule="evenodd" clip-rule="evenodd" d="M25 21C31.0892 21 36 25.8673 36 31.9027C36 38.1328 31.0892 43 25 43C18.9107 43 14 38.1328 14 31.9027C14 25.8673 18.9107 21 25 21Z" fill="white"/>
</svg>
