<svg width="18" height="28" viewBox="0 0 18 28" fill="none" xmlns="http://www.w3.org/2000/svg">
<path d="M8.99999 19.056C11.816 19.056 14.12 16.752 14.12 13.936V5.616C14.12 2.8 11.816 0.496002 8.99999 0.496002C6.18399 0.496002 3.87999 2.8 3.87999 5.616V13.936C3.87999 16.752 6.18399 19.056 8.99999 19.056ZM5.79999 5.616C5.79999 3.856 7.23999 2.416 8.99999 2.416C10.76 2.416 12.2 3.856 12.2 5.616V13.936C12.2 15.696 10.76 17.136 8.99999 17.136C7.23999 17.136 5.79999 15.696 5.79999 13.936V5.616Z" fill="#3E4445"/>
<path d="M8.03999 22.512V25.392H6.27999C5.73599 25.392 5.31999 25.808 5.31999 26.352C5.31999 26.896 5.73599 27.312 6.27999 27.312H11.752C12.296 27.312 12.712 26.896 12.712 26.352C12.712 25.808 12.296 25.392 11.752 25.392H9.95999V22.512C14.088 22.096 17.32 18.96 17.32 15.216C17.32 14.672 16.904 14.256 16.36 14.256C15.816 14.256 15.4 14.672 15.4 15.216C15.4 18.224 12.52 20.656 8.99999 20.656C5.47999 20.656 2.59999 18.224 2.59999 15.216C2.59999 14.672 2.18399 14.256 1.63999 14.256C1.09599 14.256 0.679993 14.672 0.679993 15.216C0.679993 18.96 3.91199 22.096 8.03999 22.512Z" fill="#3E4445"/>
</svg>
