<svg width="362" height="470" viewBox="0 0 362 470" fill="none" xmlns="http://www.w3.org/2000/svg">
<path d="M0 31.1385L0 438.163C0 455.36 13.9412 469.301 31.1385 469.301L105.278 469.301C122.475 469.301 136.416 455.36 136.416 438.163L136.416 31.1385C136.416 13.9412 122.475 3.05176e-05 105.278 3.05176e-05L31.1385 3.05176e-05C13.9412 3.05176e-05 0 13.9412 0 31.1385Z" fill="#3E4445" fill-opacity="0.25"/>
<path d="M225.584 31.1385L225.584 438.163C225.584 455.36 239.525 469.301 256.722 469.301L330.862 469.301C348.059 469.301 362 455.36 362 438.163L362 31.1385C362 13.9412 348.059 3.05176e-05 330.862 3.05176e-05L256.722 3.05176e-05C239.525 3.05176e-05 225.584 13.9412 225.584 31.1385Z" fill="#3E4445" fill-opacity="0.25"/>
</svg>
