<svg width="406" height="406" viewBox="0 0 406 406" fill="none" xmlns="http://www.w3.org/2000/svg">
<path d="M406 29.417C406 13.1724 392.828 0 376.583 0H29.417C13.1724 0 0 13.1724 0 29.417V376.579C0 392.828 13.1724 406 29.417 406H376.579C392.828 406 406 392.828 406 376.583V29.417ZM326.645 306.756H89.8117C83.3338 306.756 81.0872 300.981 84.8179 295.685L153.27 197.722C156.996 192.435 163.78 191.492 168.346 196.084L182.177 209.812C186.742 214.404 193.847 213.989 197.966 208.991L231.176 168.657C235.291 163.668 241.669 163.916 245.355 169.239L331.725 295.636C335.406 300.963 333.118 306.756 326.645 306.756ZM310.094 187.662C294.449 187.662 281.778 174.982 281.778 159.346C281.778 143.701 294.454 131.025 310.094 131.025C325.734 131.025 338.41 143.706 338.41 159.346C338.415 174.982 325.734 187.662 310.094 187.662Z" fill="white"/>
</svg>
