<svg width="100" height="100" viewBox="0 0 100 100" fill="none" xmlns="http://www.w3.org/2000/svg">
<path d="M49.805 48.7753C60.7429 48.7753 69.61 39.8713 69.61 28.8877C69.61 17.904 60.7429 9 49.805 9C38.8671 9 30 17.904 30 28.8877C30 39.8713 38.8671 48.7753 49.805 48.7753Z" fill="white"/>
<path d="M67.28 48C62.775 52.2677 56.655 54.8284 50.025 54.8284C43.395 54.8284 37.275 52.2677 32.77 48C24.44 54.743 19 65.2417 19 73.3504C19 86.239 23.675 90.5067 50.025 90.5067C76.375 90.5067 81.05 86.239 81.05 73.3504C81.05 65.2417 75.61 54.743 67.28 48Z" fill="white"/>
</svg>
