<svg width="100" height="100" viewBox="0 0 100 100" fill="none" xmlns="http://www.w3.org/2000/svg">
<path d="M49.98 6.00395C49.6162 6.00395 49.3851 6.04253 49.2568 6.04381C48.9581 6.04972 48.669 6.15012 48.4309 6.33052C48.193 6.51092 48.018 6.76203 47.9314 7.04795C47.2555 9.51823 46.3556 12.0311 45.2403 13.9156C44.1252 15.8004 42.8497 16.9823 41.5052 17.3295C40.1638 17.6763 38.4497 17.2742 36.5648 16.1647C34.6802 15.0558 32.6922 13.2956 30.9018 11.4657C30.6851 11.2476 30.4032 11.1061 30.0987 11.0626C29.7944 11.0192 29.4841 11.0761 29.215 11.2248C25.1714 13.3931 21.4971 16.1414 18.3304 19.4181C18.103 19.6374 17.9556 19.9269 17.9121 20.2398C17.8683 20.5527 17.9307 20.8714 18.0894 21.145C19.3586 23.3644 20.4718 25.7001 21.0213 27.8118C21.5711 29.9234 21.5215 31.6821 20.8204 32.8723C20.1193 34.0639 18.6342 34.9276 16.5229 35.4831C14.412 36.0384 11.8081 36.2309 9.25325 36.2057C8.93566 36.1965 8.62426 36.2946 8.36925 36.4842C8.11422 36.6736 7.93045 36.9435 7.84754 37.2501C6.62374 41.2904 6 45.5362 6 49.9815V50.7848C6.0085 51.0886 6.11468 51.3815 6.30277 51.6202C6.49086 51.8589 6.75088 52.031 7.04426 52.1102C9.50901 52.7829 11.9941 53.6994 13.8722 54.801C15.7505 55.9028 16.94 57.161 17.286 58.496C17.6332 59.8334 17.191 61.5105 16.0812 63.3958C14.9712 65.2811 13.251 67.2674 11.4222 69.0588C11.2041 69.2754 11.0626 69.5574 11.0191 69.8617C10.9755 70.1662 11.0324 70.4765 11.1811 70.7456C13.3507 74.801 16.0943 78.4568 19.3746 81.6296C19.5929 81.8324 19.8699 81.9609 20.1655 81.9968C20.4613 82.033 20.7609 81.9748 21.0213 81.8305C23.248 80.5598 25.6824 79.4487 27.8093 78.8984C29.936 78.3487 31.7189 78.4381 32.91 79.1395C34.1031 79.8419 34.9719 81.3597 35.5209 83.4772C36.0693 85.5943 36.2361 88.1868 36.2036 90.7467C36.1944 91.0643 36.2923 91.3756 36.4819 91.6306C36.6713 91.8855 36.9412 92.0694 37.2478 92.1523C41.288 93.3758 45.5343 93.9995 49.98 93.9995C50.3294 93.9995 50.5471 94.0006 50.6226 93.9995C50.9264 93.9911 51.2193 93.8849 51.458 93.6969C51.6967 93.5088 51.8685 93.2489 51.948 92.9554C52.6308 90.4865 53.5567 88.0134 54.679 86.1278C55.8014 84.242 57.0707 83.0622 58.4141 82.7142C59.7582 82.3659 61.4712 82.763 63.3545 83.8787C65.2381 84.9945 67.2258 86.7392 69.0175 88.5778C69.2344 88.7958 69.5164 88.9374 69.8207 88.981C70.1252 89.0245 70.4355 88.9676 70.7046 88.8189C74.7755 86.6448 78.4489 83.8743 81.6293 80.5855C81.841 80.3638 81.975 80.0798 82.0112 79.7755C82.0474 79.4713 81.9839 79.1636 81.8302 78.8984C80.5505 76.6735 79.4137 74.2767 78.8578 72.1511C78.3023 70.0258 78.3962 68.2864 79.0989 67.0909C79.8063 65.8865 81.266 64.954 83.3966 64.4001C85.5267 63.8459 88.2153 63.6455 90.7869 63.677C91.0872 63.6822 91.3818 63.5917 91.6273 63.4183C91.8728 63.245 92.0566 62.9979 92.1521 62.7131C93.3621 58.6925 94 54.3965 94 49.9815C94 49.6234 93.9601 49.4446 93.9601 49.3389C93.9628 49.0333 93.8662 48.7353 93.6852 48.4891C93.5043 48.2428 93.2483 48.062 92.9558 47.9734C90.4915 47.2959 88.0055 46.3978 86.1282 45.2826C84.2507 44.1671 83.0638 42.8913 82.7141 41.5474C82.3645 40.2045 82.7771 38.491 83.879 36.6075C84.9809 34.7238 86.7105 32.7357 88.5379 30.9445C88.7562 30.7279 88.8975 30.4459 88.9411 30.1416C88.9846 29.8371 88.9274 29.5268 88.7787 29.2577C86.609 25.2057 83.8654 21.545 80.5853 18.3737C80.3608 18.1526 80.0691 18.0128 79.7562 17.9766C79.4436 17.9401 79.1275 18.0091 78.8584 18.1728C76.633 19.4443 74.2679 20.5546 72.1509 21.1046C70.0336 21.6549 68.2875 21.6092 67.0901 20.9039C65.8849 20.1942 64.9933 18.648 64.4394 16.5264C63.8854 14.4045 63.6853 11.7852 63.7162 9.21658C63.7191 8.91104 63.6226 8.61296 63.4416 8.3668C63.2606 8.12067 63.0046 7.93975 62.7124 7.8512C58.7318 6.64993 54.5447 6.02052 50.1812 6.00358C50.1143 5.99881 50.0471 5.99881 49.9802 6.00358L49.98 6.00395ZM49.98 32.471C59.6427 32.471 67.5316 40.3196 67.5316 49.982C67.5316 59.6443 59.6427 67.5328 49.98 67.5328C40.317 67.5328 32.4682 59.6443 32.4682 49.982C32.4682 40.3196 40.317 32.471 49.98 32.471ZM49.98 35.2824C41.8451 35.2824 35.2795 41.8477 35.2795 49.982C35.2795 58.1162 41.8451 64.7216 49.98 64.7216C58.1146 64.7216 64.72 58.1162 64.72 49.982C64.72 41.8477 58.1146 35.2824 49.98 35.2824Z" fill="white"/>
</svg>
