<svg width="26" height="28" viewBox="0 0 26 28" fill="none" xmlns="http://www.w3.org/2000/svg">
<path d="M10.95 16.6088C10.7638 16.7952 10.6592 17.0474 10.6592 17.3103C10.6592 17.5732 10.7638 17.8254 10.95 18.0119C11.1367 18.1988 11.3902 18.3043 11.655 18.3055C11.787 18.3056 11.9176 18.2797 12.0395 18.2293C12.1613 18.1789 12.272 18.105 12.365 18.0119L20.365 10.0509C20.6855 9.74052 20.9407 9.36985 21.116 8.96043C21.2913 8.55101 21.383 8.11102 21.3859 7.66601C21.3888 7.22101 21.3028 6.77986 21.1329 6.36821C20.963 5.95657 20.7126 5.58262 20.3962 5.26811C20.0798 4.95361 19.7038 4.7048 19.29 4.53616C18.8761 4.36752 18.4327 4.28241 17.9855 4.28576C17.5383 4.28912 17.0963 4.38088 16.685 4.55571C16.2738 4.73054 15.9016 4.98496 15.59 5.30418L2.5 18.3303C1.51075 19.3148 0.954986 20.6499 0.954986 22.0421C0.954986 23.4343 1.51075 24.7695 2.5 25.7539C3.48926 26.7384 4.83098 27.2914 6.23 27.2914C7.62902 27.2914 8.97075 26.7384 9.96 25.7539L23.04 12.7328C24.3417 11.3852 25.0604 9.58335 25.0419 7.71424C25.0233 5.84513 24.2689 4.05779 22.9407 2.73606C21.6125 1.41434 19.8164 0.663629 17.9381 0.645155C16.0599 0.626681 14.2492 1.34191 12.895 2.63726L1.155 14.32C0.982971 14.5096 0.890796 14.7578 0.897565 15.0131C0.904333 15.2685 1.00953 15.5115 1.19136 15.6918C1.3732 15.8721 1.61775 15.9759 1.87439 15.9817C2.13102 15.9876 2.38009 15.895 2.57 15.7231L14.31 4.04536C15.2862 3.10698 16.5938 2.58782 17.9511 2.59975C19.3083 2.61167 20.6065 3.15373 21.5659 4.10912C22.5253 5.0645 23.0691 6.35673 23.0802 7.70735C23.0912 9.05796 22.5686 10.3588 21.625 11.3296L8.545 24.3707C7.92578 24.9558 7.10139 25.2772 6.24754 25.2662C5.3937 25.2552 4.57793 24.9128 3.97412 24.3119C3.37031 23.711 3.02622 22.8992 3.01517 22.0496C3.00413 21.1999 3.32701 20.3795 3.915 19.7633L17 6.72223C17.2622 6.47371 17.6104 6.33508 17.9725 6.33508C18.3346 6.33508 18.6828 6.47371 18.945 6.72223C19.0733 6.84897 19.1752 6.99972 19.2447 7.16582C19.3143 7.33192 19.35 7.51006 19.35 7.68999C19.35 7.86992 19.3143 8.04806 19.2447 8.21416C19.1752 8.38026 19.0733 8.53101 18.945 8.65775L10.95 16.6088Z" fill="#3E4445"/>
</svg>
