<svg width="78" height="64" viewBox="0 0 78 64" fill="none" xmlns="http://www.w3.org/2000/svg">
<path d="M25 0L21 10H7C3.122 10 0 13.122 0 17V57C0 60.878 3.122 64 7 64H71C74.878 64 78 60.878 78 57V17C78 13.122 74.878 10 71 10H57L53 0H25V0ZM39 18C49.4579 18 58 26.5421 58 37C58 47.4578 49.4579 56 39 56C28.5422 56 20 47.4579 20 37C20 26.5421 28.5422 18 39 18V18ZM39 24C31.785 24 26 29.7848 26 37C26 44.2151 31.785 50 39 50C46.2153 50 52 44.2152 52 37C52 29.7848 46.2153 24 39 24V24Z" fill="white"/>
</svg>
