<?xml version="1.0" encoding="utf-8"?>
<!-- Generator: Adobe Illustrator 24.3.0, SVG Export Plug-In . SVG Version: 6.00 Build 0)  -->
<svg version="1.1" id="Layer_1" xmlns="http://www.w3.org/2000/svg" xmlns:xlink="http://www.w3.org/1999/xlink" x="0px" y="0px"
	 viewBox="0 0 512 512" style="enable-background:new 0 0 512 512;" xml:space="preserve">
<style type="text/css">
	.st0{fill:#FFFFFF;}
</style>
<g>
	<path class="st0" d="M423,176c0.5-0.5,1.1-1,1.6-1.5l21.8-21.8c12.9-12.9,12.9-33.8,0-46.7l-40.4-40.4c-12.9-12.9-33.8-12.9-46.7,0
		l-21.8,21.8c-0.5,0.5-1,1.1-1.5,1.6L423,176z"/>
	<polygon class="st0" points="114.3,397.7 157.3,440.7 106.7,448.3 56,456 63.7,405.3 71.3,354.7 	"/>
	<polygon class="st0" points="349.1,125.5 119,355.7 106.5,343.3 336.7,113.1 324.3,100.7 81.7,343.3 168.7,430.3 411.3,187.7 	"/>
</g>
</svg>
