<svg width="32" height="32" viewBox="0 0 32 32" fill="none" xmlns="http://www.w3.org/2000/svg">
<path d="M10.88 12.16C11.2195 12.16 11.5451 12.2949 11.7851 12.5349C12.0251 12.775 12.16 13.1005 12.16 13.44C12.16 13.7795 12.2949 14.1051 12.5349 14.3451C12.775 14.5851 13.1005 14.72 13.44 14.72C13.7795 14.72 14.1051 14.5851 14.3451 14.3451C14.5851 14.1051 14.72 13.7795 14.72 13.44C14.72 12.4216 14.3154 11.4449 13.5953 10.7247C12.8752 10.0046 11.8984 9.60001 10.88 9.60001C9.86157 9.60001 8.88485 10.0046 8.16471 10.7247C7.44457 11.4449 7.04 12.4216 7.04 13.44C7.04 13.7795 7.17486 14.1051 7.4149 14.3451C7.65495 14.5851 7.98052 14.72 8.32 14.72C8.65948 14.72 8.98505 14.5851 9.2251 14.3451C9.46514 14.1051 9.6 13.7795 9.6 13.44C9.6 13.1005 9.73486 12.775 9.9749 12.5349C10.215 12.2949 10.5405 12.16 10.88 12.16Z" fill="#3E4445"/>
<path d="M21.12 9.60001C20.1016 9.60001 19.1248 10.0046 18.4047 10.7247C17.6846 11.4449 17.28 12.4216 17.28 13.44C17.28 13.7795 17.4149 14.1051 17.6549 14.3451C17.8949 14.5851 18.2205 14.72 18.56 14.72C18.8995 14.72 19.225 14.5851 19.4651 14.3451C19.7051 14.1051 19.84 13.7795 19.84 13.44C19.84 13.1005 19.9749 12.775 20.2149 12.5349C20.4549 12.2949 20.7805 12.16 21.12 12.16C21.4595 12.16 21.7851 12.2949 22.0251 12.5349C22.2651 12.775 22.4 13.1005 22.4 13.44C22.4 13.7795 22.5349 14.1051 22.7749 14.3451C23.0149 14.5851 23.3405 14.72 23.68 14.72C24.0195 14.72 24.3451 14.5851 24.5851 14.3451C24.8251 14.1051 24.96 13.7795 24.96 13.44C24.96 12.4216 24.5554 11.4449 23.8353 10.7247C23.1152 10.0046 22.1384 9.60001 21.12 9.60001Z" fill="#3E4445"/>
<path d="M16 0.640015C12.9621 0.640015 9.99238 1.54086 7.46644 3.22864C4.9405 4.91642 2.97177 7.31532 1.80921 10.122C0.646647 12.9287 0.342468 16.0171 0.935137 18.9966C1.52781 21.9761 2.9907 24.713 5.13884 26.8612C7.28697 29.0093 10.0239 30.4722 13.0034 31.0649C15.983 31.6575 19.0713 31.3534 21.878 30.1908C24.6847 29.0282 27.0836 27.0595 28.7714 24.5336C30.4592 22.0076 31.36 19.0379 31.36 16C31.3558 11.9276 29.7361 8.02317 26.8565 5.14353C23.9768 2.26389 20.0724 0.64425 16 0.640015ZM16 28.8C13.4684 28.8 10.9936 28.0493 8.8887 26.6428C6.78375 25.2363 5.14314 23.2373 4.17434 20.8984C3.20554 18.5595 2.95206 15.9858 3.44595 13.5029C3.93984 11.0199 5.15892 8.73916 6.94903 6.94905C8.73914 5.15894 11.0199 3.93985 13.5028 3.44596C15.9858 2.95207 18.5595 3.20555 20.8983 4.17436C23.2372 5.14316 25.2363 6.78377 26.6428 8.88872C28.0493 10.9937 28.8 13.4684 28.8 16C28.8 19.3948 27.4514 22.6505 25.051 25.051C22.6505 27.4514 19.3948 28.8 16 28.8Z" fill="#3E4445"/>
<path d="M21.12 17.28H10.88C10.6845 17.2797 10.4914 17.3241 10.3158 17.41C10.1401 17.4958 9.98639 17.6208 9.86651 17.7753C9.74663 17.9298 9.66374 18.1097 9.6242 18.3012C9.58466 18.4927 9.58952 18.6907 9.6384 18.88L9.9872 20.2752C10.3228 21.6158 11.0969 22.8057 12.1863 23.656C13.2757 24.5063 14.618 24.9681 16 24.9681C17.382 24.9681 18.7243 24.5063 19.8137 23.656C20.9031 22.8057 21.6772 21.6158 22.0128 20.2752L22.3616 18.88C22.4105 18.6907 22.4153 18.4927 22.3758 18.3012C22.3363 18.1097 22.2534 17.9298 22.1335 17.7753C22.0136 17.6208 21.8599 17.4958 21.6842 17.41C21.5086 17.3241 21.3155 17.2797 21.12 17.28ZM16 22.4C15.2232 22.4006 14.4667 22.1523 13.8413 21.6916C13.2159 21.2309 12.7545 20.582 12.5248 19.84H19.4752C19.2455 20.582 18.7841 21.2309 18.1587 21.6916C17.5333 22.1523 16.7768 22.4006 16 22.4Z" fill="#3E4445"/>
</svg>
