<svg width="100" height="100" viewBox="0 0 100 100" fill="none" xmlns="http://www.w3.org/2000/svg">
<g id="GroupStyle">
<path id="IconBG" d="M50 100C77.6142 100 100 77.6142 100 50C100 22.3858 77.6142 0 50 0C22.3858 0 0 22.3858 0 50C0 77.6142 22.3858 100 50 100Z" fill="#BCBEC0"/>
<g id="Petals">
<path id="Vector" d="M60.187 24.3309L61.3459 23.172C63.6027 20.9096 66.2889 19.121 69.2467 17.9115C72.2045 16.702 75.3742 16.0959 78.5696 16.1288L83.5382 16.18V21.1295C83.5209 27.4761 80.9881 33.557 76.4951 38.0394L75.2913 39.2496L60.187 24.3309Z" fill="#E6E7E8" stroke="#BCBEC0" stroke-width="1.28057" stroke-miterlimit="10"/>
<g id="Vector_2">
<path d="M75.1248 38.9166H76.764C79.9565 38.9116 83.1179 39.5446 86.0624 40.7782C89.0069 42.0119 91.6753 43.8215 93.9109 46.1007L97.3876 49.6542L93.8724 53.1566C89.382 57.6479 83.2943 60.176 76.9433 60.187H75.2337L75.1248 38.9358" fill="#E6E7E8"/>
<path d="M75.1248 38.9166H76.764C79.9565 38.9116 83.1179 39.5446 86.0624 40.7782C89.0069 42.0119 91.6753 43.8215 93.9109 46.1007L97.3876 49.6542L93.8724 53.1566C89.382 57.6479 83.2943 60.176 76.9433 60.187H75.2337L75.1248 38.9358" stroke="#BCBEC0" stroke-width="1.28057" stroke-miterlimit="10"/>
</g>
<g id="Vector_3">
<path d="M75.3746 59.8284L76.5335 60.9873C78.7959 63.2441 80.5844 65.9303 81.7939 68.8881C83.0035 71.8459 83.6096 75.0157 83.5766 78.211L83.5254 83.1797H78.5696C72.2202 83.1668 66.1357 80.6335 61.6532 76.1365L60.4239 74.9136L75.3746 59.8028" fill="#E6E7E8"/>
<path d="M75.3746 59.8284L76.5335 60.9873C78.7959 63.2441 80.5844 65.9303 81.7939 68.8881C83.0035 71.8459 83.6096 75.0157 83.5766 78.211L83.5254 83.1797H78.5696C72.2202 83.1668 66.1357 80.6335 61.6532 76.1365L60.4239 74.9136L75.3746 59.8028" stroke="#BCBEC0" stroke-width="1.28057" stroke-miterlimit="10"/>
</g>
<g id="Vector_4">
<path d="M60.7568 74.7983V76.4374C60.7593 79.6313 60.1234 82.7935 58.8864 85.7381C57.6494 88.6827 55.8363 91.3504 53.5536 93.5843L50 97.0611L46.4976 93.5459C42.0205 89.0492 39.5065 82.9623 39.5057 76.6167V74.9136L60.7568 74.8047" fill="#E6E7E8"/>
<path d="M60.7568 74.7983V76.4374C60.7593 79.6313 60.1234 82.7935 58.8864 85.7381C57.6494 88.6827 55.8363 91.3504 53.5536 93.5843L50 97.0611L46.4976 93.5459C42.0205 89.0492 39.5065 82.9623 39.5057 76.6167V74.9136L60.7568 74.8047" stroke="#BCBEC0" stroke-width="1.28057" stroke-miterlimit="10"/>
</g>
<g id="Vector_5">
<path d="M39.8451 75.048L38.6861 76.1941C36.4285 78.4554 33.7421 80.2431 30.7845 81.4526C27.8269 82.662 24.6576 83.2688 21.4624 83.2373L16.4938 83.1861V78.2238C16.5076 71.8765 19.0409 65.7943 23.5369 61.3139L24.7407 60.1037L39.8515 75.0544" fill="#E6E7E8"/>
<path d="M39.8451 75.048L38.6861 76.1941C36.4285 78.4554 33.7421 80.2431 30.7845 81.4526C27.8269 82.662 24.6576 83.2688 21.4624 83.2373L16.4938 83.1861V78.2238C16.5076 71.8765 19.0409 65.7943 23.5369 61.3139L24.7407 60.1037L39.8515 75.0544" stroke="#BCBEC0" stroke-width="1.28057" stroke-miterlimit="10"/>
</g>
<g id="Vector_6">
<path d="M24.8751 60.4303H23.236C20.0423 60.4313 16.8806 59.7947 13.9362 58.5578C10.9918 57.3209 8.32393 55.5085 6.08913 53.227L2.61877 49.6735L6.12755 46.1711C10.6227 41.6955 16.707 39.1816 23.0503 39.1792H24.7599L24.8687 60.4303" fill="#E6E7E8"/>
<path d="M24.8751 60.4303H23.236C20.0423 60.4313 16.8806 59.7947 13.9362 58.5578C10.9918 57.3209 8.32393 55.5085 6.08913 53.227L2.61877 49.6735L6.12755 46.1711C10.6227 41.6955 16.707 39.1816 23.0503 39.1792H24.7599L24.8687 60.4303" stroke="#BCBEC0" stroke-width="1.28057" stroke-miterlimit="10"/>
</g>
<path id="Vector_7" d="M24.6254 39.5185L23.4665 38.3596C21.2053 36.1019 19.4175 33.4156 18.2081 30.458C16.9986 27.5004 16.3919 24.331 16.4234 21.1359L16.4746 16.1672H21.4368C27.7841 16.1811 33.8663 18.7144 38.3468 23.2104L39.5569 24.4141L24.6254 39.5185Z" fill="#E6E7E8" stroke="#BCBEC0" stroke-width="1.28057" stroke-miterlimit="10"/>
<g id="Vector_8">
<path d="M39.2432 24.5486V22.9095C39.2421 19.7158 39.8787 16.5541 41.1157 13.6096C42.3526 10.6652 44.1649 7.99739 46.4464 5.76259L50 2.28583L53.5024 5.801C57.9796 10.2977 60.4935 16.3847 60.4943 22.7302V24.4398L39.2432 24.5486" fill="#E6E7E8"/>
<path d="M39.2432 24.5486V22.9095C39.2421 19.7158 39.8787 16.5541 41.1157 13.6096C42.3526 10.6652 44.1649 7.99739 46.4464 5.76259L50 2.28583L53.5024 5.801C57.9796 10.2977 60.4935 16.3847 60.4943 22.7302V24.4398L39.2432 24.5486" stroke="#BCBEC0" stroke-width="1.28057" stroke-miterlimit="10"/>
</g>
<g id="Vector_9">
<path d="M23.2616 55.3272L21.6545 55.007C18.5216 54.3837 15.5446 53.1412 12.8982 51.3524C10.2518 49.5635 7.98907 47.2643 6.2428 44.5896L3.52798 40.4277L7.68345 37.6809C12.9554 34.1747 19.4007 32.8972 25.6115 34.1273L27.2826 34.4602L23.2488 55.3272" fill="#E6E7E8"/>
<path d="M23.2616 55.3272L21.6545 55.007C18.5216 54.3837 15.5446 53.1412 12.8982 51.3524C10.2518 49.5635 7.98907 47.2643 6.2428 44.5896L3.52798 40.4277L7.68345 37.6809C12.9554 34.1747 19.4007 32.8972 25.6115 34.1273L27.2826 34.4602L23.2488 55.3272" stroke="#A7A9AC" stroke-width="1.28057" stroke-miterlimit="10"/>
</g>
<path id="Vector_10" d="M35.0877 72.5765L33.7239 73.4857C31.0686 75.2607 28.0856 76.4876 24.9499 77.0946C21.8141 77.7015 18.5888 77.6762 15.4629 77.0201L10.6031 75.9957L11.5764 71.1359C12.8314 64.9158 16.4958 59.4446 21.7698 55.9163L23.1848 54.9686L35.0877 72.5765Z" fill="#E6E7E8" stroke="#A7A9AC" stroke-width="1.28057" stroke-miterlimit="10"/>
<g id="Vector_11">
<path d="M55.6537 76.4118L55.3336 78.019C54.7103 81.1519 53.4678 84.1288 51.6789 86.7753C49.8901 89.4217 47.5909 91.6844 44.9161 93.4307L40.7543 96.1455L38.0074 92.022C34.4947 86.736 33.2171 80.2743 34.4538 74.0492L34.7868 72.378L55.6537 76.4118" fill="#E6E7E8"/>
<path d="M55.6537 76.4118L55.3336 78.019C54.7103 81.1519 53.4678 84.1288 51.6789 86.7753C49.8901 89.4217 47.5909 91.6844 44.9161 93.4307L40.7543 96.1455L38.0074 92.022C34.4947 86.736 33.2171 80.2743 34.4538 74.0492L34.7868 72.378L55.6537 76.4118" stroke="#A7A9AC" stroke-width="1.28057" stroke-miterlimit="10"/>
</g>
<g id="Vector_12">
<path d="M72.9031 64.5857L73.8187 65.9495C75.5912 68.6059 76.8163 71.5892 77.422 74.7247C78.0278 77.8602 78.0022 81.085 77.3466 84.2105L76.3286 89.0703L71.4624 88.0971C65.2412 86.8446 59.7692 83.1797 56.2428 77.9037L55.2952 76.4887L72.9031 64.5857" fill="#E6E7E8"/>
<path d="M72.9031 64.5857L73.8187 65.9495C75.5912 68.6059 76.8163 71.5892 77.422 74.7247C78.0278 77.8602 78.0022 81.085 77.3466 84.2105L76.3286 89.0703L71.4624 88.0971C65.2412 86.8446 59.7692 83.1797 56.2428 77.9037L55.2952 76.4887L72.9031 64.5857" stroke="#A7A9AC" stroke-width="1.28057" stroke-miterlimit="10"/>
</g>
<g id="Vector_13">
<path d="M76.7384 44.0197L78.3519 44.3399C81.4837 44.964 84.4594 46.2069 87.1047 47.9957C89.75 49.7845 92.0117 52.0833 93.7572 54.7573L96.472 58.9192L92.3486 61.666C87.0664 65.1824 80.6052 66.4603 74.3821 65.2196L72.7046 64.8867L76.7384 44.0197" fill="#E6E7E8"/>
<path d="M76.7384 44.0197L78.3519 44.3399C81.4837 44.964 84.4594 46.2069 87.1047 47.9957C89.75 49.7845 92.0117 52.0833 93.7572 54.7573L96.472 58.9192L92.3486 61.666C87.0664 65.1824 80.6052 66.4603 74.3821 65.2196L72.7046 64.8867L76.7384 44.0197" stroke="#A7A9AC" stroke-width="1.28057" stroke-miterlimit="10"/>
</g>
<g id="Vector_14">
<path d="M64.9123 26.7704L66.2761 25.8548C68.93 24.0847 71.91 22.8611 75.042 22.2554C78.174 21.6496 81.3953 21.6739 84.5179 22.3268L89.3776 23.3449L88.4044 28.211C87.152 34.4322 83.487 39.9043 78.211 43.4307L76.8344 44.3783L64.9315 26.7704" fill="#E6E7E8"/>
<path d="M64.9123 26.7704L66.2761 25.8548C68.93 24.0847 71.91 22.8611 75.042 22.2554C78.174 21.6496 81.3953 21.6739 84.5179 22.3268L89.3776 23.3449L88.4044 28.211C87.152 34.4322 83.487 39.9043 78.211 43.4307L76.8344 44.3783L64.9315 26.7704" stroke="#A7A9AC" stroke-width="1.28057" stroke-miterlimit="10"/>
</g>
<path id="Vector_15" d="M44.3463 22.9351L44.6664 21.3215C45.2882 18.1913 46.5281 15.2166 48.3136 12.5714C50.099 9.92616 52.3942 7.66365 55.0647 5.91625L59.2457 3.20143L61.9926 7.32488C65.5083 12.6074 66.7862 19.0682 65.5462 25.2913L65.2132 26.9689L44.3463 22.9351Z" fill="#E6E7E8" stroke="#A7A9AC" stroke-width="1.28057" stroke-miterlimit="10"/>
<path id="Vector_16" d="M27.0969 34.7612L26.1877 33.3974C24.4127 30.742 23.1858 27.7591 22.5789 24.6233C21.972 21.4876 21.9973 18.2622 22.6533 15.1364L23.6906 10.2766L28.5504 11.2498C34.7669 12.5054 40.2338 16.17 43.7572 21.4432L44.7048 22.8582L27.0969 34.7612Z" fill="#E6E7E8" stroke="#A7A9AC" stroke-width="1.28057" stroke-miterlimit="10"/>
<path id="Vector_17" d="M30.4456 30.5801L29.8053 29.0626C28.5864 26.1165 27.9671 22.957 27.9836 19.7688C28.0001 16.5806 28.6521 13.4276 29.9014 10.4943L31.8543 5.92265L36.4323 7.84351C42.2864 10.2717 46.9427 14.9164 49.3853 20.7645L50.0256 22.3396L30.4456 30.5801Z" fill="#E6E7E8" stroke="#939598" stroke-width="1.28057" stroke-miterlimit="10"/>
<path id="Vector_18" d="M22.6726 50L21.1551 49.3597C18.2059 48.1383 15.53 46.341 13.2839 44.0729C11.0378 41.8048 9.26663 39.1115 8.07402 36.1506L6.22359 31.5405L10.808 29.6517C16.6709 27.2249 23.2574 27.2249 29.1202 29.6517L30.7018 30.292L22.6726 50Z" fill="#E6E7E8" stroke="#939598" stroke-width="1.28057" stroke-miterlimit="10"/>
<g id="Vector_19">
<path d="M30.9067 69.2278L29.3892 69.8681C26.4431 71.087 23.2836 71.7063 20.0953 71.6898C16.9071 71.6733 13.7542 71.0214 10.8209 69.7721L6.24921 67.8512L8.17007 63.2731C10.5913 57.407 15.2369 52.7383 21.0911 50.2881L22.6662 49.6478L30.9067 69.2406" fill="#E6E7E8"/>
<path d="M30.9067 69.2278L29.3892 69.8681C26.4431 71.087 23.2836 71.7063 20.0953 71.6898C16.9071 71.6733 13.7542 71.0214 10.8209 69.7721L6.24921 67.8512L8.17007 63.2731C10.5913 57.407 15.2369 52.7383 21.0911 50.2881L22.6662 49.6478L30.9067 69.2406" stroke="#939598" stroke-width="1.28057" stroke-miterlimit="10"/>
</g>
<path id="Vector_20" d="M50.3265 77.0009L49.6863 78.5184C48.467 81.4657 46.6727 84.1405 44.408 86.3865C42.1433 88.6325 39.4537 90.4047 36.4963 91.5994L31.8671 93.4819L29.9462 88.8974C27.5229 83.0339 27.5229 76.4488 29.9462 70.5852L30.5865 69.0037L50.3265 77.0009Z" fill="#E6E7E8" stroke="#939598" stroke-width="1.28057" stroke-miterlimit="10"/>
<g id="Vector_21">
<path d="M69.5544 68.7668L70.1946 70.2843C71.4136 73.2304 72.0329 76.3899 72.0164 79.5781C71.9999 82.7663 71.3479 85.9193 70.0986 88.8526L68.1777 93.4243L63.5997 91.5034C57.7432 89.0634 53.0908 84.4041 50.6595 78.544L50.0192 76.9689L69.612 68.7284" fill="#E6E7E8"/>
<path d="M69.5544 68.7668L70.1946 70.2843C71.4136 73.2304 72.0329 76.3899 72.0164 79.5781C71.9999 82.7663 71.3479 85.9193 70.0986 88.8526L68.1777 93.4243L63.5997 91.5034C57.7432 89.0634 53.0908 84.4041 50.6595 78.544L50.0192 76.9689L69.612 68.7284" stroke="#939598" stroke-width="1.28057" stroke-miterlimit="10"/>
</g>
<g id="Vector_22">
<path d="M77.3274 49.3469L78.8449 49.9872C81.7941 51.2086 84.47 53.0059 86.7161 55.274C88.9622 57.5421 90.7334 60.2354 91.926 63.1963L93.7764 67.8064L89.192 69.6952C83.3291 72.122 76.7426 72.122 70.8798 69.6952L69.2982 69.0549L77.3274 49.3789" fill="#E6E7E8"/>
<path d="M77.3274 49.3469L78.8449 49.9872C81.7941 51.2086 84.47 53.0059 86.7161 55.274C88.9622 57.5421 90.7334 60.2354 91.926 63.1963L93.7764 67.8064L89.192 69.6952C83.3291 72.122 76.7426 72.122 70.8798 69.6952L69.2982 69.0549L77.3274 49.3789" stroke="#939598" stroke-width="1.28057" stroke-miterlimit="10"/>
</g>
<path id="Vector_23" d="M69.0934 30.0935L70.6108 29.4532C73.5569 28.2343 76.7164 27.615 79.9047 27.6315C83.0929 27.6479 86.2458 28.2999 89.1791 29.5492L93.7508 31.4701L91.8299 36.0481C89.39 41.9047 84.7307 46.5571 78.8705 48.9883L77.2954 49.6286L69.0934 30.0935Z" fill="#E6E7E8" stroke="#939598" stroke-width="1.28057" stroke-miterlimit="10"/>
<path id="Vector_24" d="M49.6735 22.346L50.3137 20.8285C51.5351 17.8794 53.3325 15.2035 55.6006 12.9574C57.8687 10.7113 60.562 8.94008 63.5229 7.74746L68.1329 5.89703L70.0538 10.4815C72.4806 16.3444 72.4806 22.9308 70.0538 28.7937L69.4135 30.3752L49.6735 22.346Z" fill="#E6E7E8" stroke="#939598" stroke-width="1.28057" stroke-miterlimit="10"/>
</g>
<g id="Icon">
<g id="Group" opacity="0.4">
<path id="Vector_25" opacity="0.4" d="M48.4418 52.4866C47.8477 53.1264 46.9908 53.4578 46.1338 53.652C45.2655 53.8348 44.3172 53.8006 43.4145 53.4692C42.5233 53.1379 41.6779 52.4409 41.2551 51.4925C40.8209 50.5556 40.7524 49.5273 40.9009 48.5676C41.038 47.6078 41.4608 46.6138 42.112 45.8368C42.7633 45.0599 43.5859 44.4658 44.4886 44.0659C46.2824 43.3232 48.3961 43.3118 50.1671 44.1573C51.0126 44.5686 51.8124 45.1285 52.4408 45.894C53.0806 46.6367 53.4234 47.7449 53.492 48.5447C53.6862 50.1329 54.1889 51.6754 55.4572 52.4294C56.6797 53.1835 58.4164 53.0122 59.8674 52.5209C61.3413 52.041 62.5182 50.7842 62.5753 49.0932L62.7238 49.0817C62.8838 49.9158 62.7124 50.8413 62.2325 51.6068C61.7412 52.3609 60.9757 52.9207 60.176 53.2635C59.3647 53.6177 58.5078 53.812 57.628 53.8691C56.7368 53.9262 55.7885 53.7777 54.9659 53.2978C54.1432 52.8408 53.5034 52.0867 53.0806 51.2869C52.6579 50.4985 52.418 49.6073 52.2123 48.7961C52.0295 47.962 51.7667 47.4593 51.2525 46.9908C50.7498 46.5452 50.11 46.2025 49.4244 45.9968C48.1219 45.5512 46.6594 45.734 45.4026 46.2253C44.1572 46.7395 43.0832 47.6078 42.729 48.9332C42.3291 50.2586 42.6605 51.6868 43.9173 52.3952C44.5343 52.738 45.2883 52.9208 46.0539 52.8751C46.8422 52.8636 47.5621 52.5666 48.3619 52.3267L48.4418 52.4866Z" fill="white"/>
</g>
<path id="Vector_26" d="M49.3901 35.4281C52.9491 35.4281 55.8342 32.543 55.8342 28.9841C55.8342 25.4251 52.9491 22.54 49.3901 22.54C45.8312 22.54 42.9461 25.4251 42.9461 28.9841C42.9461 32.543 45.8312 35.4281 49.3901 35.4281Z" fill="white"/>
<path id="Vector_27" d="M71.0988 37.7133C74.6578 37.7133 77.5429 34.8282 77.5429 31.2692C77.5429 27.7103 74.6578 24.8251 71.0988 24.8251C67.5399 24.8251 64.6548 27.7103 64.6548 31.2692C64.6548 34.8282 67.5399 37.7133 71.0988 37.7133Z" fill="white"/>
<path id="Vector_28" d="M27.8871 37.7704C31.4461 37.7704 34.3312 34.8853 34.3312 31.3263C34.3312 27.7674 31.4461 24.8823 27.8871 24.8823C24.3282 24.8823 21.4431 27.7674 21.4431 31.3263C21.4431 34.8853 24.3282 37.7704 27.8871 37.7704Z" fill="white"/>
<path id="Vector_29" d="M96.7379 56.1771C96.7379 48.9561 75.7833 43.1062 49.95 43.1062C24.1167 43.1062 3.16206 48.9561 3.16206 56.1771C3.16206 61.9927 16.607 65.1678 35.3565 66.8702C35.3565 66.6874 35.3565 66.5046 35.3565 66.3218C35.3565 64.3097 35.7528 62.3173 36.5228 60.4584C37.2928 58.5995 38.4214 56.9104 39.8441 55.4876C41.2669 54.0649 42.9559 52.9363 44.8149 52.1663C46.6738 51.3963 48.6662 51 50.6782 51C52.6903 51 54.6827 51.3963 56.5416 52.1663C58.4005 52.9363 60.0896 54.0649 61.5124 55.4876C62.9351 56.9104 64.0637 58.5995 64.8337 60.4584C65.6037 62.3173 66 64.3097 66 66.3218C66 66.4589 66 66.5846 66 66.7217C83.8583 64.8821 96.7379 61.8213 96.7379 56.1771Z" fill="white"/>
<path id="Vector_30" d="M59.1724 75.3879C61.5304 73.0939 62.8959 70.047 63 66.8474C63.0022 64.8737 62.4829 62.9307 61.4896 61.1955C60.4962 59.4603 59.0603 57.9878 57.3125 56.9121C55.5647 55.8364 53.5605 55.1917 51.4823 55.0366C49.4041 54.8815 47.318 55.221 45.4138 56.0241C43.5095 56.8272 41.8477 58.0684 40.5794 59.6349C39.3112 61.2013 38.4769 63.0432 38.1524 64.9929C37.8279 66.9426 38.0235 68.9381 38.7215 70.7979C39.4195 72.6577 40.5977 74.3227 42.1488 75.6414L42.4031 75.8568L42.7377 76.1102C44.7184 77.9349 41.5064 81.0267 39.4052 82.4459C39.2511 82.5415 39.1325 82.6804 39.0658 82.843C38.9992 83.0057 38.988 83.184 39.0337 83.353C39.0794 83.522 39.1798 83.6732 39.3209 83.7855C39.4619 83.8978 39.6364 83.9655 39.8201 83.9792C49.4427 84.4607 58.0616 76.4523 59.2928 75.2612L59.1724 75.3879Z" fill="white"/>
</g>
</g>
</svg>
