<svg width="16" height="16" viewBox="0 0 16 16" fill="none" xmlns="http://www.w3.org/2000/svg">
<path d="M9.793 12.5L12.6465 15.3535C12.7402 15.4473 12.8674 15.5 13 15.5C13.0657 15.5002 13.1308 15.4872 13.1914 15.4619C13.2827 15.424 13.3608 15.36 13.4157 15.2778C13.4707 15.1955 13.5 15.0989 13.5 15V12.5H15C15.1326 12.5 15.2598 12.4473 15.3536 12.3536C15.4473 12.2598 15.5 12.1326 15.5 12V1C15.5 0.867392 15.4473 0.740215 15.3536 0.646447C15.2598 0.552678 15.1326 0.5 15 0.5H1C0.867392 0.5 0.740215 0.552678 0.646447 0.646447C0.552678 0.740215 0.5 0.867392 0.5 1V12C0.5 12.1326 0.552678 12.2598 0.646447 12.3536C0.740215 12.4473 0.867392 12.5 1 12.5H9.793ZM1.5 1.5H14.5V11.5H13C12.8674 11.5 12.7402 11.5527 12.6464 11.6464C12.5527 11.7402 12.5 11.8674 12.5 12V13.793L10.3535 11.6465C10.3071 11.6 10.252 11.5632 10.1913 11.538C10.1307 11.5129 10.0657 11.5 10 11.5H1.5V1.5Z" fill="white"/>
<path d="M6 5.5C6.13261 5.5 6.25979 5.44732 6.35355 5.35355C6.44732 5.25979 6.5 5.13261 6.5 5C6.5 4.86739 6.44732 4.74021 6.35355 4.64645C6.25979 4.55268 6.13261 4.5 6 4.5H4C3.86739 4.5 3.74021 4.55268 3.64645 4.64645C3.55268 4.74021 3.5 4.86739 3.5 5C3.5 5.13261 3.55268 5.25979 3.64645 5.35355C3.74021 5.44732 3.86739 5.5 4 5.5H6Z" fill="white"/>
<path d="M12 5.5C12.1326 5.5 12.2598 5.44732 12.3536 5.35355C12.4473 5.25979 12.5 5.13261 12.5 5C12.5 4.86739 12.4473 4.74021 12.3536 4.64645C12.2598 4.55268 12.1326 4.5 12 4.5H8C7.86739 4.5 7.74021 4.55268 7.64645 4.64645C7.55268 4.74021 7.5 4.86739 7.5 5C7.5 5.13261 7.55268 5.25979 7.64645 5.35355C7.74021 5.44732 7.86739 5.5 8 5.5H12Z" fill="white"/>
<path d="M12 8.5C12.1326 8.5 12.2598 8.44732 12.3536 8.35355C12.4473 8.25979 12.5 8.13261 12.5 8C12.5 7.86739 12.4473 7.74021 12.3536 7.64645C12.2598 7.55268 12.1326 7.5 12 7.5H4C3.86739 7.5 3.74021 7.55268 3.64645 7.64645C3.55268 7.74021 3.5 7.86739 3.5 8C3.5 8.13261 3.55268 8.25979 3.64645 8.35355C3.74021 8.44732 3.86739 8.5 4 8.5H12Z" fill="white"/>
</svg>
