<?xml version="1.0" encoding="utf-8"?>
<!-- Generator: Adobe Illustrator 24.3.0, SVG Export Plug-In . SVG Version: 6.00 Build 0)  -->
<svg version="1.1" id="Capa_1" xmlns="http://www.w3.org/2000/svg" xmlns:xlink="http://www.w3.org/1999/xlink" x="0px" y="0px"
	 viewBox="0 0 489.4 489.4" style="enable-background:new 0 0 489.4 489.4;" xml:space="preserve">
<style type="text/css">
	.st0{fill:#6B6B6B;}
</style>
<g>
	<path class="st0" d="M375.8,92.9H166.9l17.5-42.8c3.7-9.1,1-19.6-6.7-25.7c-7.7-6.2-18.5-6.5-26.6-0.9L9.6,121.7
		c-6.2,4.3-9.8,11.5-9.6,19s4.3,14.4,10.7,18.4l147.9,89.8c8.4,5.1,19.2,4.1,26.5-2.5s9.4-17.3,5.2-26.2l-19.4-41.1h204.9
		c15.1,0,27.4,12.5,27.4,27.7v149.9c0,15.1-12.3,27.2-27.4,27.2H149c-20.2,0-36.6,16.4-36.6,36.6v12.9c0,20.2,16.4,36.6,36.6,36.6
		h226.7c62.6,0,113.6-50.7,113.6-113.4V206.7C489.4,144.1,438.4,92.9,375.8,92.9z"/>
</g>
</svg>
