<svg width="100" height="100" viewBox="0 0 100 100" fill="none" xmlns="http://www.w3.org/2000/svg">
<path d="M43.8189 77.0211C36.1362 77.0227 28.6906 74.3604 22.7508 69.4878C16.8111 64.6152 12.7446 57.8338 11.2443 50.299C9.74395 42.7643 10.9027 34.9424 14.523 28.1662C18.1433 21.39 24.0011 16.0787 31.0985 13.1374C38.1958 10.1961 46.0934 9.80668 53.4457 12.0356C60.7979 14.2644 67.1499 18.9737 71.4192 25.3609C75.6885 31.7481 77.6111 39.418 76.8593 47.0638C76.1074 54.7096 72.7278 61.8582 67.2961 67.2915C61.0701 73.5194 52.6252 77.0192 43.8189 77.0211V77.0211ZM43.8189 17.2487C37.6725 17.2613 31.7206 19.4047 26.9775 23.3138C22.2344 27.2228 18.9935 32.6557 17.8071 38.6865C16.6207 44.7173 17.5622 50.9729 20.4713 56.3873C23.3803 61.8017 28.0767 66.0399 33.7604 68.3796C39.444 70.7193 45.7631 71.0158 51.6409 69.2186C57.5187 67.4214 62.5914 63.6416 65.9946 58.5234C69.3978 53.4052 70.921 47.2652 70.3046 41.1498C69.6881 35.0344 66.9702 29.322 62.614 24.9859C57.6168 20.0295 50.8571 17.2588 43.8189 17.2819V17.2487Z" fill="#222222" fill-opacity="0.25"/>
<path d="M86.0912 86.0866C84.2233 87.9521 81.6913 89 79.0514 89C76.4114 89 73.8794 87.9521 72.0115 86.0866L57.3673 71.4423C57.0177 71.0885 56.752 70.6607 56.5899 70.1904C56.4279 69.7201 56.3735 69.2194 56.4309 68.7254C56.4883 68.2313 56.6559 67.7564 56.9215 67.3358C57.187 66.9152 57.5436 66.5596 57.965 66.2953C61.3381 64.1834 64.188 61.3335 66.2999 57.9603C66.5642 57.539 66.9198 57.1823 67.3404 56.9168C67.761 56.6513 68.2359 56.4836 68.73 56.4263C69.2241 56.3689 69.7248 56.4232 70.195 56.5853C70.6653 56.7474 71.0931 57.013 71.447 57.3626L86.0912 72.0068C87.9568 73.8747 89.0046 76.4068 89.0046 79.0467C89.0046 81.6867 87.9568 84.2187 86.0912 86.0866V86.0866ZM64.8388 69.4831L76.6937 81.3712C77.0033 81.6808 77.3708 81.9264 77.7754 82.094C78.1799 82.2615 78.6135 82.3478 79.0514 82.3478C79.4892 82.3478 79.9228 82.2615 80.3273 82.094C80.7319 81.9264 81.0994 81.6808 81.409 81.3712C81.7187 81.0616 81.9643 80.694 82.1318 80.2895C82.2994 79.8849 82.3856 79.4514 82.3856 79.0135C82.3856 78.5756 82.2994 78.1421 82.1318 77.7375C81.9643 77.333 81.7187 76.9654 81.409 76.6558L69.521 64.8342C68.1307 66.5565 66.5611 68.126 64.8388 69.5163V69.4831Z" fill="#222222" fill-opacity="0.25"/>
</svg>
