<svg width="100" height="100" viewBox="0 0 100 100" fill="none" xmlns="http://www.w3.org/2000/svg">
<g id="SettingsStyle">
<path id="IconBG" d="M50 100C77.6142 100 100 77.6142 100 50C100 22.3858 77.6142 0 50 0C22.3858 0 0 22.3858 0 50C0 77.6142 22.3858 100 50 100Z" fill="#BCBEC0"/>
<g id="Petals">
<path id="Vector" d="M60.187 24.3309L61.3459 23.172C63.6026 20.9096 66.2889 19.121 69.2467 17.9115C72.2045 16.702 75.3742 16.0959 78.5696 16.1288L83.5382 16.18V21.1295C83.5209 27.4761 80.9881 33.557 76.4951 38.0394L75.2913 39.2496L60.187 24.3309Z" fill="#E6E7E8" stroke="#BCBEC0" stroke-width="1.28057" stroke-miterlimit="10"/>
<g id="Vector_2">
<path d="M75.1248 38.9166H76.764C79.9565 38.9116 83.1179 39.5446 86.0624 40.7782C89.0069 42.0119 91.6753 43.8215 93.9109 46.1007L97.3876 49.6542L93.8724 53.1566C89.382 57.6479 83.2943 60.176 76.9433 60.187H75.2337L75.1248 38.9358" fill="#E6E7E8"/>
<path d="M75.1248 38.9166H76.764C79.9565 38.9116 83.1179 39.5446 86.0624 40.7782C89.0069 42.0119 91.6753 43.8215 93.9109 46.1007L97.3876 49.6542L93.8724 53.1566C89.382 57.6479 83.2943 60.176 76.9433 60.187H75.2337L75.1248 38.9358" stroke="#BCBEC0" stroke-width="1.28057" stroke-miterlimit="10"/>
</g>
<g id="Vector_3">
<path d="M75.3746 59.8284L76.5335 60.9873C78.7959 63.2441 80.5844 65.9303 81.794 68.8881C83.0035 71.8459 83.6096 75.0157 83.5767 78.211L83.5254 83.1797H78.5696C72.2202 83.1668 66.1357 80.6335 61.6532 76.1365L60.4239 74.9136L75.3746 59.8028" fill="#E6E7E8"/>
<path d="M75.3746 59.8284L76.5335 60.9873C78.7959 63.2441 80.5844 65.9303 81.794 68.8881C83.0035 71.8459 83.6096 75.0157 83.5767 78.211L83.5254 83.1797H78.5696C72.2202 83.1668 66.1357 80.6335 61.6532 76.1365L60.4239 74.9136L75.3746 59.8028" stroke="#BCBEC0" stroke-width="1.28057" stroke-miterlimit="10"/>
</g>
<g id="Vector_4">
<path d="M60.7568 74.7983V76.4374C60.7593 79.6313 60.1234 82.7935 58.8864 85.7381C57.6494 88.6827 55.8363 91.3504 53.5536 93.5843L50 97.0611L46.4976 93.5459C42.0205 89.0492 39.5065 82.9623 39.5057 76.6167V74.9136L60.7568 74.8047" fill="#E6E7E8"/>
<path d="M60.7568 74.7983V76.4374C60.7593 79.6313 60.1234 82.7935 58.8864 85.7381C57.6494 88.6827 55.8363 91.3504 53.5536 93.5843L50 97.0611L46.4976 93.5459C42.0205 89.0492 39.5065 82.9623 39.5057 76.6167V74.9136L60.7568 74.8047" stroke="#BCBEC0" stroke-width="1.28057" stroke-miterlimit="10"/>
</g>
<g id="Vector_5">
<path d="M39.845 75.048L38.6861 76.1941C36.4285 78.4554 33.7421 80.2431 30.7845 81.4526C27.8269 82.662 24.6576 83.2688 21.4624 83.2373L16.4938 83.1861V78.2238C16.5076 71.8765 19.0409 65.7943 23.5369 61.3139L24.7407 60.1037L39.8514 75.0544" fill="#E6E7E8"/>
<path d="M39.845 75.048L38.6861 76.1941C36.4285 78.4554 33.7421 80.2431 30.7845 81.4526C27.8269 82.662 24.6576 83.2688 21.4624 83.2373L16.4938 83.1861V78.2238C16.5076 71.8765 19.0409 65.7943 23.5369 61.3139L24.7407 60.1037L39.8514 75.0544" stroke="#BCBEC0" stroke-width="1.28057" stroke-miterlimit="10"/>
</g>
<g id="Vector_6">
<path d="M24.8751 60.4303H23.236C20.0423 60.4313 16.8806 59.7947 13.9362 58.5578C10.9918 57.3209 8.32393 55.5085 6.08913 53.227L2.61877 49.6735L6.12755 46.1711C10.6227 41.6955 16.707 39.1816 23.0503 39.1792H24.7599L24.8687 60.4303" fill="#E6E7E8"/>
<path d="M24.8751 60.4303H23.236C20.0423 60.4313 16.8806 59.7947 13.9362 58.5578C10.9918 57.3209 8.32393 55.5085 6.08913 53.227L2.61877 49.6735L6.12755 46.1711C10.6227 41.6955 16.707 39.1816 23.0503 39.1792H24.7599L24.8687 60.4303" stroke="#BCBEC0" stroke-width="1.28057" stroke-miterlimit="10"/>
</g>
<path id="Vector_7" d="M24.6254 39.5185L23.4665 38.3596C21.2052 36.1019 19.4175 33.4156 18.2081 30.458C16.9986 27.5004 16.3919 24.331 16.4233 21.1359L16.4746 16.1672H21.4368C27.7841 16.1811 33.8663 18.7144 38.3468 23.2104L39.5569 24.4141L24.6254 39.5185Z" fill="#E6E7E8" stroke="#BCBEC0" stroke-width="1.28057" stroke-miterlimit="10"/>
<g id="Vector_8">
<path d="M39.2432 24.5486V22.9095C39.2421 19.7158 39.8787 16.5541 41.1156 13.6096C42.3526 10.6652 44.1649 7.99739 46.4464 5.76259L50 2.28583L53.5024 5.801C57.9795 10.2977 60.4935 16.3847 60.4943 22.7302V24.4398L39.2432 24.5486" fill="#E6E7E8"/>
<path d="M39.2432 24.5486V22.9095C39.2421 19.7158 39.8787 16.5541 41.1156 13.6096C42.3526 10.6652 44.1649 7.99739 46.4464 5.76259L50 2.28583L53.5024 5.801C57.9795 10.2977 60.4935 16.3847 60.4943 22.7302V24.4398L39.2432 24.5486" stroke="#BCBEC0" stroke-width="1.28057" stroke-miterlimit="10"/>
</g>
<g id="Vector_9">
<path d="M23.2616 55.3272L21.6545 55.007C18.5216 54.3837 15.5446 53.1412 12.8982 51.3524C10.2518 49.5635 7.98907 47.2643 6.2428 44.5896L3.52798 40.4277L7.68345 37.6809C12.9554 34.1747 19.4007 32.8972 25.6115 34.1273L27.2826 34.4602L23.2488 55.3272" fill="#E6E7E8"/>
<path d="M23.2616 55.3272L21.6545 55.007C18.5216 54.3837 15.5446 53.1412 12.8982 51.3524C10.2518 49.5635 7.98907 47.2643 6.2428 44.5896L3.52798 40.4277L7.68345 37.6809C12.9554 34.1747 19.4007 32.8972 25.6115 34.1273L27.2826 34.4602L23.2488 55.3272" stroke="#A7A9AC" stroke-width="1.28057" stroke-miterlimit="10"/>
</g>
<path id="Vector_10" d="M35.0877 72.5765L33.7239 73.4857C31.0686 75.2607 28.0856 76.4876 24.9499 77.0946C21.8141 77.7015 18.5888 77.6762 15.4629 77.0201L10.6031 75.9957L11.5764 71.1359C12.8314 64.9158 16.4958 59.4446 21.7698 55.9163L23.1848 54.9686L35.0877 72.5765Z" fill="#E6E7E8" stroke="#A7A9AC" stroke-width="1.28057" stroke-miterlimit="10"/>
<g id="Vector_11">
<path d="M55.6537 76.4118L55.3336 78.019C54.7103 81.1519 53.4678 84.1288 51.6789 86.7753C49.8901 89.4217 47.5909 91.6844 44.9161 93.4307L40.7543 96.1455L38.0074 92.022C34.4947 86.736 33.2171 80.2743 34.4538 74.0492L34.7868 72.378L55.6537 76.4118" fill="#E6E7E8"/>
<path d="M55.6537 76.4118L55.3336 78.019C54.7103 81.1519 53.4678 84.1288 51.6789 86.7753C49.8901 89.4217 47.5909 91.6844 44.9161 93.4307L40.7543 96.1455L38.0074 92.022C34.4947 86.736 33.2171 80.2743 34.4538 74.0492L34.7868 72.378L55.6537 76.4118" stroke="#A7A9AC" stroke-width="1.28057" stroke-miterlimit="10"/>
</g>
<g id="Vector_12">
<path d="M72.9031 64.5857L73.8187 65.9495C75.5912 68.6059 76.8163 71.5892 77.422 74.7247C78.0278 77.8602 78.0022 81.085 77.3466 84.2105L76.3286 89.0703L71.4624 88.0971C65.2412 86.8446 59.7692 83.1797 56.2428 77.9037L55.2952 76.4887L72.9031 64.5857" fill="#E6E7E8"/>
<path d="M72.9031 64.5857L73.8187 65.9495C75.5912 68.6059 76.8163 71.5892 77.422 74.7247C78.0278 77.8602 78.0022 81.085 77.3466 84.2105L76.3286 89.0703L71.4624 88.0971C65.2412 86.8446 59.7692 83.1797 56.2428 77.9037L55.2952 76.4887L72.9031 64.5857" stroke="#A7A9AC" stroke-width="1.28057" stroke-miterlimit="10"/>
</g>
<g id="Vector_13">
<path d="M76.7384 44.0197L78.3519 44.3399C81.4837 44.964 84.4594 46.2069 87.1047 47.9957C89.75 49.7845 92.0117 52.0833 93.7572 54.7573L96.472 58.9192L92.3486 61.666C87.0664 65.1824 80.6052 66.4603 74.3821 65.2196L72.7046 64.8867L76.7384 44.0197" fill="#E6E7E8"/>
<path d="M76.7384 44.0197L78.3519 44.3399C81.4837 44.964 84.4594 46.2069 87.1047 47.9957C89.75 49.7845 92.0117 52.0833 93.7572 54.7573L96.472 58.9192L92.3486 61.666C87.0664 65.1824 80.6052 66.4603 74.3821 65.2196L72.7046 64.8867L76.7384 44.0197" stroke="#A7A9AC" stroke-width="1.28057" stroke-miterlimit="10"/>
</g>
<g id="Vector_14">
<path d="M64.9123 26.7704L66.2761 25.8548C68.93 24.0847 71.91 22.8611 75.042 22.2554C78.174 21.6496 81.3953 21.6739 84.5179 22.3268L89.3777 23.3449L88.4044 28.211C87.152 34.4322 83.4871 39.9043 78.2111 43.4307L76.8344 44.3783L64.9315 26.7704" fill="#E6E7E8"/>
<path d="M64.9123 26.7704L66.2761 25.8548C68.93 24.0847 71.91 22.8611 75.042 22.2554C78.174 21.6496 81.3953 21.6739 84.5179 22.3268L89.3777 23.3449L88.4044 28.211C87.152 34.4322 83.4871 39.9043 78.2111 43.4307L76.8344 44.3783L64.9315 26.7704" stroke="#A7A9AC" stroke-width="1.28057" stroke-miterlimit="10"/>
</g>
<path id="Vector_15" d="M44.3463 22.9351L44.6664 21.3215C45.2882 18.1913 46.5281 15.2166 48.3136 12.5714C50.099 9.92616 52.3942 7.66365 55.0647 5.91625L59.2457 3.20143L61.9926 7.32488C65.5082 12.6074 66.7861 19.0682 65.5462 25.2913L65.2132 26.9689L44.3463 22.9351Z" fill="#E6E7E8" stroke="#A7A9AC" stroke-width="1.28057" stroke-miterlimit="10"/>
<path id="Vector_16" d="M27.097 34.7612L26.1877 33.3974C24.4128 30.742 23.1858 27.7591 22.5789 24.6233C21.972 21.4876 21.9973 18.2622 22.6534 15.1364L23.6906 10.2766L28.5504 11.2498C34.7669 12.5054 40.2339 16.17 43.7572 21.4432L44.7048 22.8582L27.097 34.7612Z" fill="#E6E7E8" stroke="#A7A9AC" stroke-width="1.28057" stroke-miterlimit="10"/>
<path id="Vector_17" d="M30.4456 30.5801L29.8053 29.0626C28.5864 26.1165 27.9671 22.957 27.9836 19.7688C28.0001 16.5806 28.6521 13.4276 29.9014 10.4943L31.8543 5.92265L36.4323 7.84351C42.2864 10.2717 46.9427 14.9164 49.3853 20.7645L50.0256 22.3396L30.4456 30.5801Z" fill="#E6E7E8" stroke="#939598" stroke-width="1.28057" stroke-miterlimit="10"/>
<path id="Vector_18" d="M22.6725 50L21.1551 49.3597C18.2059 48.1383 15.53 46.341 13.2839 44.0729C11.0378 41.8048 9.26661 39.1115 8.074 36.1506L6.22357 31.5405L10.808 29.6517C16.6709 27.2249 23.2574 27.2249 29.1202 29.6517L30.7017 30.292L22.6725 50Z" fill="#E6E7E8" stroke="#939598" stroke-width="1.28057" stroke-miterlimit="10"/>
<g id="Vector_19">
<path d="M30.9067 69.2278L29.3892 69.8681C26.4431 71.087 23.2836 71.7063 20.0953 71.6898C16.9071 71.6733 13.7542 71.0214 10.8209 69.7721L6.24921 67.8512L8.17007 63.2731C10.5913 57.407 15.2369 52.7383 21.0911 50.2881L22.6662 49.6478L30.9067 69.2406" fill="#E6E7E8"/>
<path d="M30.9067 69.2278L29.3892 69.8681C26.4431 71.087 23.2836 71.7063 20.0953 71.6898C16.9071 71.6733 13.7542 71.0214 10.8209 69.7721L6.24921 67.8512L8.17007 63.2731C10.5913 57.407 15.2369 52.7383 21.0911 50.2881L22.6662 49.6478L30.9067 69.2406" stroke="#939598" stroke-width="1.28057" stroke-miterlimit="10"/>
</g>
<path id="Vector_20" d="M50.3265 77.0009L49.6863 78.5184C48.467 81.4657 46.6727 84.1405 44.408 86.3865C42.1433 88.6325 39.4537 90.4047 36.4963 91.5994L31.8671 93.4819L29.9462 88.8974C27.5229 83.0339 27.5229 76.4488 29.9462 70.5852L30.5865 69.0037L50.3265 77.0009Z" fill="#E6E7E8" stroke="#939598" stroke-width="1.28057" stroke-miterlimit="10"/>
<g id="Vector_21">
<path d="M69.5544 68.7668L70.1947 70.2843C71.4136 73.2304 72.0329 76.3899 72.0164 79.5781C71.9999 82.7663 71.3479 85.9193 70.0986 88.8526L68.1778 93.4243L63.5997 91.5034C57.7432 89.0634 53.0908 84.4041 50.6595 78.544L50.0192 76.9689L69.612 68.7284" fill="#E6E7E8"/>
<path d="M69.5544 68.7668L70.1947 70.2843C71.4136 73.2304 72.0329 76.3899 72.0164 79.5781C71.9999 82.7663 71.3479 85.9193 70.0986 88.8526L68.1778 93.4243L63.5997 91.5034C57.7432 89.0634 53.0908 84.4041 50.6595 78.544L50.0192 76.9689L69.612 68.7284" stroke="#939598" stroke-width="1.28057" stroke-miterlimit="10"/>
</g>
<g id="Vector_22">
<path d="M77.3274 49.3469L78.8449 49.9872C81.7941 51.2086 84.47 53.0059 86.7161 55.274C88.9622 57.5421 90.7334 60.2354 91.926 63.1963L93.7764 67.8064L89.192 69.6952C83.3291 72.122 76.7426 72.122 70.8798 69.6952L69.2982 69.0549L77.3274 49.3789" fill="#E6E7E8"/>
<path d="M77.3274 49.3469L78.8449 49.9872C81.7941 51.2086 84.47 53.0059 86.7161 55.274C88.9622 57.5421 90.7334 60.2354 91.926 63.1963L93.7764 67.8064L89.192 69.6952C83.3291 72.122 76.7426 72.122 70.8798 69.6952L69.2982 69.0549L77.3274 49.3789" stroke="#939598" stroke-width="1.28057" stroke-miterlimit="10"/>
</g>
<path id="Vector_23" d="M69.0934 30.0935L70.6108 29.4532C73.5569 28.2343 76.7164 27.615 79.9047 27.6315C83.0929 27.6479 86.2458 28.2999 89.1791 29.5492L93.7508 31.4701L91.8299 36.0481C89.39 41.9047 84.7307 46.5571 78.8705 48.9883L77.2954 49.6286L69.0934 30.0935Z" fill="#E6E7E8" stroke="#939598" stroke-width="1.28057" stroke-miterlimit="10"/>
<path id="Vector_24" d="M49.6735 22.346L50.3137 20.8285C51.5351 17.8794 53.3325 15.2035 55.6006 12.9574C57.8687 10.7113 60.562 8.94008 63.5229 7.74746L68.1329 5.89703L70.0538 10.4815C72.4806 16.3444 72.4806 22.9308 70.0538 28.7937L69.4135 30.3752L49.6735 22.346Z" fill="#E6E7E8" stroke="#939598" stroke-width="1.28057" stroke-miterlimit="10"/>
</g>
<g id="Icon">
<path id="Vector_25" d="M49.5 74C62.4787 74 73 63.2548 73 50C73 36.7452 62.4787 26 49.5 26C36.5213 26 26 36.7452 26 50C26 63.2548 36.5213 74 49.5 74Z" fill="white"/>
<path id="Vector_26" d="M37.3955 19.9377C45.1641 16.8025 53.8459 16.8025 61.6145 19.9377H61.7651C61.7759 19.8677 61.7759 19.7966 61.7651 19.7266L61.087 19.0484C61.3399 18.7071 61.6116 18.38 61.9008 18.0688C61.9912 16.2151 62.0515 13.6379 62.0515 12.9748C61.9352 9.51699 60.4798 6.23973 57.9926 3.83476C55.5054 1.4298 52.1811 0.0853424 48.7213 0.0853424C45.2615 0.0853424 41.9371 1.4298 39.4499 3.83476C36.9627 6.23973 35.5073 9.51699 35.3911 12.9748C35.3911 13.7133 35.4664 16.833 35.587 18.6717C36.0693 19.2142 36.4461 19.6664 36.657 19.9377H37.3955Z" fill="white"/>
<path id="Vector_27" d="M19.5063 37.3897C22.8083 29.656 28.9685 23.4957 36.7022 20.1938V20.1938L36.5666 20.013H35.6171C35.5505 19.5939 35.5102 19.1711 35.4965 18.747C34.2457 17.3755 32.4824 15.5219 32.0001 15.0396C29.475 12.6636 26.124 11.3643 22.6573 11.417C19.1906 11.4697 15.8805 12.8703 13.4289 15.322C10.9772 17.7736 9.57661 21.0837 9.52388 24.5504C9.47115 28.0172 10.7705 31.3681 13.1465 33.8932C13.6739 34.4056 15.9194 36.5608 17.3059 37.7966C18.0143 37.7966 18.6172 37.872 18.9789 37.9172L19.5063 37.3897Z" fill="white"/>
<path id="Vector_28" d="M19.3104 62.2567C16.1759 54.4828 16.1759 45.7967 19.3104 38.0227V37.8871H19.0994L18.4213 38.5653C18.0741 38.3191 17.7419 38.0523 17.4265 37.7665C15.5728 37.661 12.9957 37.6158 12.3326 37.6158C8.79918 37.6158 5.41055 39.0194 2.91207 41.5179C0.413579 44.0164 -0.990051 47.405 -0.990051 50.9384C-0.990051 54.4718 0.413579 57.8605 2.91207 60.359C5.41055 62.8575 8.79918 64.2611 12.3326 64.2611C13.0711 64.2611 16.1908 64.2612 18.0445 64.0803C18.572 63.598 19.0241 63.2061 19.3104 62.9952V62.2567Z" fill="white"/>
<path id="Vector_29" d="M36.7474 80.0856C28.9985 76.7906 22.8216 70.63 19.5063 62.8897L19.3406 63.0102V63.9748C18.9214 64.0406 18.4986 64.0809 18.0746 64.0954C16.688 65.3463 14.8344 67.1096 14.3672 67.5918C11.9356 70.1037 10.5888 73.4705 10.6172 76.9664C10.6456 80.4622 12.0469 83.8067 14.5189 86.2787C16.9909 88.7507 20.3355 90.1521 23.8313 90.1804C27.3271 90.2088 30.694 88.862 33.2058 86.4305C33.7333 85.9181 35.8884 83.6725 37.1091 82.2709C37.1091 81.5776 37.1845 80.9747 37.2297 80.613L36.7474 80.0856Z" fill="white"/>
<path id="Vector_30" d="M61.6145 80.3418C53.8459 83.4769 45.1641 83.4769 37.3955 80.3418H37.2448C37.2448 80.3418 37.2448 80.4624 37.2448 80.5528L37.923 81.231C37.6765 81.5732 37.4098 81.9003 37.1242 82.2106C37.0338 84.0793 36.9736 86.6414 36.9736 87.3045C36.9736 89.0541 37.3181 90.7865 37.9876 92.4029C38.6571 94.0193 39.6386 95.488 40.8757 96.7251C42.1128 97.9623 43.5814 98.9436 45.1978 99.6131C46.8142 100.283 48.5466 100.627 50.2962 100.627C52.0458 100.627 53.7782 100.283 55.3946 99.6131C57.011 98.9436 58.4797 97.9623 59.7168 96.7251C60.9539 95.488 61.9353 94.0193 62.6048 92.4029C63.2743 90.7865 63.6189 89.0541 63.6189 87.3045C63.6189 86.5661 63.6189 83.4615 63.4381 81.6078C62.9558 81.0652 62.579 80.6281 62.368 80.3418H61.6145Z" fill="white"/>
<path id="Vector_31" d="M79.4584 62.8897C76.1539 70.6216 69.9944 76.781 62.2625 80.0856V80.0856L62.3982 80.2664H63.212C63.2786 80.6855 63.3189 81.1083 63.3325 81.5324C64.5834 82.919 66.3467 84.7726 66.829 85.2398C68.0581 86.4867 69.5206 87.4793 71.1333 88.1609C72.7459 88.8425 74.477 89.1998 76.2277 89.2124C77.9784 89.225 79.7145 88.8927 81.3368 88.2343C82.9591 87.576 84.4358 86.6045 85.6826 85.3755C86.9295 84.1465 87.9221 82.6839 88.6037 81.0712C89.2853 79.4586 89.6426 77.7274 89.6552 75.9767C89.6678 74.226 89.3355 72.4899 88.6771 70.8676C88.0188 69.2454 87.0474 67.7686 85.8183 66.5218C85.2908 65.9943 83.0453 63.8391 81.6587 62.6184C80.9504 62.6184 80.3476 62.528 79.9859 62.4828L79.4584 62.8897Z" fill="white"/>
<path id="Vector_32" d="M100 49.3862C100 45.8528 98.5964 42.464 96.0979 39.9656C93.5994 37.4671 90.2108 36.0634 86.6774 36.0634C85.9238 36.0634 82.8192 36.0634 80.9655 36.2443C80.438 36.7266 79.9859 37.1184 79.6995 37.3294V38.0227C82.834 45.7967 82.834 54.4828 79.6995 62.2567V62.4074H79.9105L80.5887 61.7292C80.9389 61.977 81.2712 62.2489 81.5834 62.543C83.4371 62.6335 86.0142 62.6787 86.6774 62.6787C90.2055 62.6787 93.5897 61.2792 96.0873 58.7873C98.5849 56.2953 99.992 52.9143 100 49.3862Z" fill="white"/>
<path id="Vector_33" d="M62.2625 20.1938C69.9962 23.4957 76.1565 29.656 79.4584 37.3897L79.5338 37.465L79.6995 37.3294V36.3799C79.9256 36.3799 80.3778 36.2895 80.9655 36.2443C82.352 34.9934 84.2057 33.2302 84.6729 32.7479C87.1044 30.2361 88.4513 26.8692 88.4229 23.3734C88.3945 19.8776 86.9932 16.533 84.5212 14.061C82.0492 11.589 78.7046 10.1877 75.2088 10.1593C71.713 10.1309 68.3461 11.4777 65.8343 13.9093C65.3068 14.4368 63.1517 16.6822 61.931 18.0688C61.9163 18.6234 61.871 19.1769 61.7953 19.7266L62.2625 20.1938Z" fill="white"/>
</g>
</g>
<defs>
<clipPath id="clip0_22_160">
<rect width="100" height="100" fill="white"/>
</clipPath>
</defs>
</svg>
