<svg width="100" height="100" viewBox="0 0 100 100" fill="none" xmlns="http://www.w3.org/2000/svg">
<path d="M50 7C26.2821 7 7 26.2821 7 50C7 73.7179 26.2821 93 50 93C73.7179 93 93 73.7179 93 50C93 26.2821 73.7179 7 50 7ZM50 31.6232C57.4232 31.6232 63.4884 37.6884 63.4884 45.1116C63.4884 52.5347 57.4232 58.6 50 58.6C42.5769 58.6 36.5116 52.5347 36.5116 45.1116C36.5116 37.6884 42.5769 31.6232 50 31.6232ZM26.4632 76.0716V74.08C26.4632 68.3768 31.08 63.6695 36.8737 63.6695H63.1263C68.8295 63.6695 73.5369 68.2863 73.5369 74.08V76.0716C67.2905 81.6842 59.0526 85.1242 50 85.1242C40.9474 85.1242 32.7095 81.6842 26.4632 76.0716Z" fill="#FFFBFB"/>
</svg>
