<svg width="328" height="408" viewBox="0 0 328 408" fill="none" xmlns="http://www.w3.org/2000/svg">
<path d="M307.5 0H20.5C9.20079 0 0 9.1559 0 20.4V387.6C0 398.844 9.20079 408 20.5 408H217.026C222.433 408 227.679 405.831 231.553 402.057L322.028 312.024C325.902 308.168 328 303.028 328 297.567V20.4C328 9.1559 318.799 0 307.5 0ZM284.417 279.094L198.463 364.71C193.297 369.85 184.5 366.236 184.5 358.928V273.392C184.5 268.894 188.132 265.2 192.732 265.2H278.606C285.951 265.2 289.583 273.954 284.417 279.094Z" fill="white"/>
</svg>
