<svg width="100" height="100" viewBox="0 0 100 100" fill="none" xmlns="http://www.w3.org/2000/svg">
<path d="M35 7.24833C21.6902 14.9249 13 29.103 13 43.5803C13 50.4588 14.8782 57.1864 18.5312 63.5072C26.1 76.6032 39.9449 83.4856 54 84.0828V90.0456H44C42.8953 90.0456 42 90.9308 42 92.0227C42 93.1149 42.8953 94 44 94H68C69.1045 94 70 93.1149 70 92.0227C70 90.9308 69.1045 90.0456 68 90.0456H58V84.052C63.9988 83.7392 70.5349 82.0446 76 78.8925C76.9031 78.3724 77.2484 77.089 76.7263 76.194C76.2043 75.2987 74.9077 74.9515 74 75.4634C68.6696 78.5377 61.7951 80.1593 56 80.1593C42.5228 80.1593 29.1512 73.9035 22 61.5299C18.6582 55.7476 17 49.7502 17 43.5803C17 30.682 24.8943 17.6597 37 10.6776C37.7988 10.2479 38.221 9.23357 37.9598 8.37244C37.3545 7.06809 36.0945 6.69366 35 7.24833ZM55.0937 12.0987C54.3206 12.0981 53.55 12.1066 52.7812 12.1605C42.5308 12.88 32.7967 18.4415 27.2812 27.8859C18.4565 42.9968 23.7151 62.3831 39 71.1072C54.2847 79.8315 73.8941 74.6326 82.7188 59.5219C91.5435 44.4107 86.2847 25.0247 71 16.3004C65.9845 13.4377 60.5051 12.103 55.0937 12.0987Z" fill="white"/>
</svg>
