<svg width="40" height="40" viewBox="0 0 40 40" fill="none" xmlns="http://www.w3.org/2000/svg">
<path d="M24.4825 31.25L31.6162 38.3838C31.8505 38.6183 32.1685 38.75 32.5 38.75C32.6643 38.7505 32.827 38.718 32.9785 38.6547C33.2067 38.56 33.402 38.4 33.5392 38.1945C33.6767 37.9887 33.75 37.7472 33.75 37.5V31.25H37.5C37.8315 31.25 38.1495 31.1182 38.384 30.884C38.6182 30.6495 38.75 30.3315 38.75 30V2.5C38.75 2.16848 38.6182 1.85054 38.384 1.61612C38.1495 1.3817 37.8315 1.25 37.5 1.25H2.5C2.16848 1.25 1.85054 1.3817 1.61612 1.61612C1.3817 1.85054 1.25 2.16848 1.25 2.5V30C1.25 30.3315 1.3817 30.6495 1.61612 30.884C1.85054 31.1182 2.16848 31.25 2.5 31.25H24.4825ZM3.75 3.75H36.25V28.75H32.5C32.1685 28.75 31.8505 28.8818 31.616 29.116C31.3818 29.3505 31.25 29.6685 31.25 30V34.4825L25.8838 29.1162C25.7678 29 25.63 28.908 25.4783 28.845C25.3268 28.7823 25.1643 28.75 25 28.75H3.75V3.75Z" fill="white"/>
<path d="M33 28.75H24V29.25L31.4118 34.75L33 28.75Z" fill="white"/>
<path fill-rule="evenodd" clip-rule="evenodd" d="M37 3H3V29H37V3ZM15.8839 13.3839C15.6495 13.6183 15.3315 13.75 15 13.75H10C9.66848 13.75 9.35052 13.6183 9.11613 13.3839C8.8817 13.1495 8.75 12.8315 8.75 12.5C8.75 12.1685 8.8817 11.8505 9.11613 11.6161C9.35052 11.3817 9.66848 11.25 10 11.25H15C15.3315 11.25 15.6495 11.3817 15.8839 11.6161C16.1183 11.8505 16.25 12.1685 16.25 12.5C16.25 12.8315 16.1183 13.1495 15.8839 13.3839ZM30 13.75C30.3315 13.75 30.6495 13.6183 30.884 13.3839C31.1182 13.1495 31.25 12.8315 31.25 12.5C31.25 12.1685 31.1182 11.8505 30.884 11.6161C30.6495 11.3817 30.3315 11.25 30 11.25H20C19.6685 11.25 19.3505 11.3817 19.1161 11.6161C18.8817 11.8505 18.75 12.1685 18.75 12.5C18.75 12.8315 18.8817 13.1495 19.1161 13.3839C19.3505 13.6183 19.6685 13.75 20 13.75H30ZM30.884 20.8839C30.6495 21.1183 30.3315 21.25 30 21.25H10C9.66848 21.25 9.35052 21.1183 9.11613 20.8839C8.8817 20.6495 8.75 20.3315 8.75 20C8.75 19.6685 8.8817 19.3505 9.11613 19.1161C9.35052 18.8817 9.66848 18.75 10 18.75H30C30.3315 18.75 30.6495 18.8817 30.884 19.1161C31.1182 19.3505 31.25 19.6685 31.25 20C31.25 20.3315 31.1182 20.6495 30.884 20.8839Z" fill="white"/>
</svg>
