<svg width="58" height="55" viewBox="0 0 58 55" fill="none" xmlns="http://www.w3.org/2000/svg">
<path d="M42.7227 38.1516C46.5899 34.1963 48.8293 28.9431 49 23.4265C49.0035 20.0235 48.152 16.6737 46.5229 13.6819C44.8938 10.6901 42.5389 8.15139 39.6725 6.29676C36.8061 4.44214 33.5192 3.33053 30.111 3.06311C26.7028 2.79569 23.2815 3.38095 20.1586 4.76563C17.0356 6.1503 14.3102 8.29042 12.2302 10.9912C10.1503 13.692 8.78204 16.8676 8.24988 20.2291C7.71772 23.5906 8.0386 27.0312 9.18332 30.2378C10.328 33.4443 12.2602 36.315 14.8041 38.5885L15.2211 38.9599L15.7698 39.3969C19.0182 42.5429 13.7505 47.8736 10.3046 50.3205C10.0519 50.4854 9.85723 50.7248 9.74798 51.0052C9.63872 51.2856 9.6203 51.5931 9.6953 51.8844C9.77029 52.1758 9.93495 52.4365 10.1662 52.6301C10.3975 52.8237 10.6838 52.9405 10.985 52.9641C26.7661 53.7943 40.901 39.9868 42.9202 37.9331L42.7227 38.1516Z" fill="white"/>
</svg>
