<svg width="100" height="100" viewBox="0 0 100 100" fill="none" xmlns="http://www.w3.org/2000/svg">
<g id="ProfileStyle">
<path id="IconBG" d="M50 100C77.6142 100 100 77.6142 100 50C100 22.3858 77.6142 0 50 0C22.3858 0 0 22.3858 0 50C0 77.6142 22.3858 100 50 100Z" fill="#BCBEC0"/>
<g id="Petals">
<path id="Vector" d="M60.187 24.3309L61.3459 23.172C63.6027 20.9096 66.2889 19.121 69.2467 17.9115C72.2045 16.702 75.3742 16.0959 78.5696 16.1288L83.5382 16.18V21.1295C83.5209 27.4761 80.9881 33.557 76.4951 38.0394L75.2913 39.2496L60.187 24.3309Z" fill="#E6E7E8" stroke="#BCBEC0" stroke-width="1.28057" stroke-miterlimit="10"/>
<g id="Vector_2">
<path d="M75.1249 38.9166H76.764C79.9565 38.9116 83.1179 39.5446 86.0624 40.7782C89.007 42.0119 91.6753 43.8215 93.9109 46.1007L97.3876 49.6542L93.8725 53.1566C89.382 57.6479 83.2943 60.176 76.9433 60.187H75.2337L75.1249 38.9358" fill="#E6E7E8"/>
<path d="M75.1249 38.9166H76.764C79.9565 38.9116 83.1179 39.5446 86.0624 40.7782C89.007 42.0119 91.6753 43.8215 93.9109 46.1007L97.3876 49.6542L93.8725 53.1566C89.382 57.6479 83.2943 60.176 76.9433 60.187H75.2337L75.1249 38.9358" stroke="#BCBEC0" stroke-width="1.28057" stroke-miterlimit="10"/>
</g>
<g id="Vector_3">
<path d="M75.3746 59.8284L76.5335 60.9873C78.7959 63.2441 80.5844 65.9303 81.7939 68.8881C83.0035 71.8459 83.6096 75.0157 83.5766 78.211L83.5254 83.1797H78.5696C72.2202 83.1668 66.1357 80.6335 61.6532 76.1365L60.4239 74.9136L75.3746 59.8028" fill="#E6E7E8"/>
<path d="M75.3746 59.8284L76.5335 60.9873C78.7959 63.2441 80.5844 65.9303 81.7939 68.8881C83.0035 71.8459 83.6096 75.0157 83.5766 78.211L83.5254 83.1797H78.5696C72.2202 83.1668 66.1357 80.6335 61.6532 76.1365L60.4239 74.9136L75.3746 59.8028" stroke="#BCBEC0" stroke-width="1.28057" stroke-miterlimit="10"/>
</g>
<g id="Vector_4">
<path d="M60.7568 74.7983V76.4374C60.7593 79.6313 60.1234 82.7935 58.8863 85.7381C57.6493 88.6827 55.8362 91.3504 53.5536 93.5843L50 97.0611L46.4976 93.5459C42.0204 89.0492 39.5065 82.9623 39.5057 76.6167V74.9136L60.7568 74.8047" fill="#E6E7E8"/>
<path d="M60.7568 74.7983V76.4374C60.7593 79.6313 60.1234 82.7935 58.8863 85.7381C57.6493 88.6827 55.8362 91.3504 53.5536 93.5843L50 97.0611L46.4976 93.5459C42.0204 89.0492 39.5065 82.9623 39.5057 76.6167V74.9136L60.7568 74.8047" stroke="#BCBEC0" stroke-width="1.28057" stroke-miterlimit="10"/>
</g>
<g id="Vector_5">
<path d="M39.8451 75.048L38.6861 76.1941C36.4285 78.4554 33.7421 80.2431 30.7845 81.4526C27.8269 82.662 24.6576 83.2688 21.4624 83.2373L16.4938 83.1861V78.2238C16.5076 71.8765 19.0409 65.7943 23.5369 61.3139L24.7407 60.1037L39.8515 75.0544" fill="#E6E7E8"/>
<path d="M39.8451 75.048L38.6861 76.1941C36.4285 78.4554 33.7421 80.2431 30.7845 81.4526C27.8269 82.662 24.6576 83.2688 21.4624 83.2373L16.4938 83.1861V78.2238C16.5076 71.8765 19.0409 65.7943 23.5369 61.3139L24.7407 60.1037L39.8515 75.0544" stroke="#BCBEC0" stroke-width="1.28057" stroke-miterlimit="10"/>
</g>
<g id="Vector_6">
<path d="M24.8751 60.4303H23.236C20.0423 60.4313 16.8806 59.7947 13.9362 58.5578C10.9918 57.3209 8.32393 55.5085 6.08913 53.227L2.61877 49.6735L6.12755 46.1711C10.6227 41.6955 16.707 39.1816 23.0503 39.1792H24.7599L24.8687 60.4303" fill="#E6E7E8"/>
<path d="M24.8751 60.4303H23.236C20.0423 60.4313 16.8806 59.7947 13.9362 58.5578C10.9918 57.3209 8.32393 55.5085 6.08913 53.227L2.61877 49.6735L6.12755 46.1711C10.6227 41.6955 16.707 39.1816 23.0503 39.1792H24.7599L24.8687 60.4303" stroke="#BCBEC0" stroke-width="1.28057" stroke-miterlimit="10"/>
</g>
<path id="Vector_7" d="M24.6254 39.5185L23.4665 38.3596C21.2053 36.1019 19.4175 33.4156 18.2081 30.458C16.9986 27.5004 16.3919 24.331 16.4234 21.1359L16.4746 16.1672H21.4368C27.7841 16.1811 33.8663 18.7144 38.3468 23.2104L39.5569 24.4141L24.6254 39.5185Z" fill="#E6E7E8" stroke="#BCBEC0" stroke-width="1.28057" stroke-miterlimit="10"/>
<g id="Vector_8">
<path d="M39.2432 24.5486V22.9095C39.2421 19.7158 39.8787 16.5541 41.1157 13.6096C42.3526 10.6652 44.1649 7.99739 46.4464 5.76259L50 2.28583L53.5024 5.801C57.9796 10.2977 60.4935 16.3847 60.4943 22.7302V24.4398L39.2432 24.5486" fill="#E6E7E8"/>
<path d="M39.2432 24.5486V22.9095C39.2421 19.7158 39.8787 16.5541 41.1157 13.6096C42.3526 10.6652 44.1649 7.99739 46.4464 5.76259L50 2.28583L53.5024 5.801C57.9796 10.2977 60.4935 16.3847 60.4943 22.7302V24.4398L39.2432 24.5486" stroke="#BCBEC0" stroke-width="1.28057" stroke-miterlimit="10"/>
</g>
<g id="Vector_9">
<path d="M23.2616 55.3272L21.6545 55.007C18.5216 54.3837 15.5446 53.1412 12.8982 51.3524C10.2518 49.5635 7.98907 47.2643 6.2428 44.5896L3.52798 40.4277L7.68345 37.6809C12.9554 34.1747 19.4007 32.8972 25.6115 34.1273L27.2826 34.4602L23.2488 55.3272" fill="#E6E7E8"/>
<path d="M23.2616 55.3272L21.6545 55.007C18.5216 54.3837 15.5446 53.1412 12.8982 51.3524C10.2518 49.5635 7.98907 47.2643 6.2428 44.5896L3.52798 40.4277L7.68345 37.6809C12.9554 34.1747 19.4007 32.8972 25.6115 34.1273L27.2826 34.4602L23.2488 55.3272" stroke="#A7A9AC" stroke-width="1.28057" stroke-miterlimit="10"/>
</g>
<path id="Vector_10" d="M35.0877 72.5765L33.7239 73.4857C31.0686 75.2607 28.0856 76.4876 24.9499 77.0946C21.8141 77.7015 18.5888 77.6762 15.4629 77.0201L10.6031 75.9957L11.5764 71.1359C12.8314 64.9158 16.4958 59.4446 21.7698 55.9163L23.1848 54.9686L35.0877 72.5765Z" fill="#E6E7E8" stroke="#A7A9AC" stroke-width="1.28057" stroke-miterlimit="10"/>
<g id="Vector_11">
<path d="M55.6537 76.4118L55.3336 78.019C54.7103 81.1519 53.4678 84.1288 51.6789 86.7753C49.8901 89.4217 47.5909 91.6844 44.9161 93.4307L40.7543 96.1455L38.0074 92.022C34.4947 86.736 33.2171 80.2743 34.4538 74.0492L34.7868 72.378L55.6537 76.4118" fill="#E6E7E8"/>
<path d="M55.6537 76.4118L55.3336 78.019C54.7103 81.1519 53.4678 84.1288 51.6789 86.7753C49.8901 89.4217 47.5909 91.6844 44.9161 93.4307L40.7543 96.1455L38.0074 92.022C34.4947 86.736 33.2171 80.2743 34.4538 74.0492L34.7868 72.378L55.6537 76.4118" stroke="#A7A9AC" stroke-width="1.28057" stroke-miterlimit="10"/>
</g>
<g id="Vector_12">
<path d="M72.9031 64.5857L73.8187 65.9495C75.5913 68.6059 76.8163 71.5892 77.422 74.7247C78.0278 77.8602 78.0022 81.085 77.3467 84.2105L76.3286 89.0703L71.4624 88.0971C65.2413 86.8446 59.7692 83.1797 56.2428 77.9037L55.2952 76.4887L72.9031 64.5857" fill="#E6E7E8"/>
<path d="M72.9031 64.5857L73.8187 65.9495C75.5913 68.6059 76.8163 71.5892 77.422 74.7247C78.0278 77.8602 78.0022 81.085 77.3467 84.2105L76.3286 89.0703L71.4624 88.0971C65.2413 86.8446 59.7692 83.1797 56.2428 77.9037L55.2952 76.4887L72.9031 64.5857" stroke="#A7A9AC" stroke-width="1.28057" stroke-miterlimit="10"/>
</g>
<g id="Vector_13">
<path d="M76.7384 44.0197L78.3519 44.3399C81.4837 44.964 84.4594 46.2069 87.1047 47.9957C89.75 49.7845 92.0117 52.0833 93.7572 54.7573L96.472 58.9192L92.3486 61.666C87.0664 65.1824 80.6052 66.4603 74.3821 65.2196L72.7046 64.8867L76.7384 44.0197" fill="#E6E7E8"/>
<path d="M76.7384 44.0197L78.3519 44.3399C81.4837 44.964 84.4594 46.2069 87.1047 47.9957C89.75 49.7845 92.0117 52.0833 93.7572 54.7573L96.472 58.9192L92.3486 61.666C87.0664 65.1824 80.6052 66.4603 74.3821 65.2196L72.7046 64.8867L76.7384 44.0197" stroke="#A7A9AC" stroke-width="1.28057" stroke-miterlimit="10"/>
</g>
<g id="Vector_14">
<path d="M64.9123 26.7704L66.2761 25.8548C68.93 24.0847 71.91 22.8611 75.042 22.2554C78.174 21.6496 81.3953 21.6739 84.5179 22.3268L89.3776 23.3449L88.4044 28.211C87.152 34.4322 83.487 39.9043 78.211 43.4307L76.8344 44.3783L64.9315 26.7704" fill="#E6E7E8"/>
<path d="M64.9123 26.7704L66.2761 25.8548C68.93 24.0847 71.91 22.8611 75.042 22.2554C78.174 21.6496 81.3953 21.6739 84.5179 22.3268L89.3776 23.3449L88.4044 28.211C87.152 34.4322 83.487 39.9043 78.211 43.4307L76.8344 44.3783L64.9315 26.7704" stroke="#A7A9AC" stroke-width="1.28057" stroke-miterlimit="10"/>
</g>
<path id="Vector_15" d="M44.3463 22.9351L44.6664 21.3215C45.2882 18.1913 46.5281 15.2166 48.3136 12.5714C50.099 9.92616 52.3942 7.66365 55.0647 5.91625L59.2457 3.20143L61.9926 7.32488C65.5083 12.6074 66.7862 19.0682 65.5462 25.2913L65.2132 26.9689L44.3463 22.9351Z" fill="#E6E7E8" stroke="#A7A9AC" stroke-width="1.28057" stroke-miterlimit="10"/>
<path id="Vector_16" d="M27.0969 34.7612L26.1877 33.3974C24.4127 30.742 23.1858 27.7591 22.5789 24.6233C21.972 21.4876 21.9973 18.2622 22.6533 15.1364L23.6906 10.2766L28.5504 11.2498C34.7669 12.5054 40.2338 16.17 43.7572 21.4432L44.7048 22.8582L27.0969 34.7612Z" fill="#E6E7E8" stroke="#A7A9AC" stroke-width="1.28057" stroke-miterlimit="10"/>
<path id="Vector_17" d="M30.4456 30.5801L29.8053 29.0626C28.5864 26.1165 27.9671 22.957 27.9836 19.7688C28.0001 16.5806 28.6521 13.4276 29.9014 10.4943L31.8543 5.92265L36.4323 7.84351C42.2864 10.2717 46.9427 14.9164 49.3853 20.7645L50.0256 22.3396L30.4456 30.5801Z" fill="#E6E7E8" stroke="#939598" stroke-width="1.28057" stroke-miterlimit="10"/>
<path id="Vector_18" d="M22.6726 50L21.1551 49.3597C18.2059 48.1383 15.53 46.341 13.2839 44.0729C11.0378 41.8048 9.26663 39.1115 8.07402 36.1506L6.22359 31.5405L10.808 29.6517C16.6709 27.2249 23.2574 27.2249 29.1202 29.6517L30.7018 30.292L22.6726 50Z" fill="#E6E7E8" stroke="#939598" stroke-width="1.28057" stroke-miterlimit="10"/>
<g id="Vector_19">
<path d="M30.9067 69.2278L29.3892 69.8681C26.4431 71.087 23.2836 71.7063 20.0953 71.6898C16.9071 71.6733 13.7542 71.0214 10.8209 69.7721L6.24921 67.8512L8.17007 63.2731C10.5913 57.407 15.2369 52.7383 21.0911 50.2881L22.6662 49.6478L30.9067 69.2406" fill="#E6E7E8"/>
<path d="M30.9067 69.2278L29.3892 69.8681C26.4431 71.087 23.2836 71.7063 20.0953 71.6898C16.9071 71.6733 13.7542 71.0214 10.8209 69.7721L6.24921 67.8512L8.17007 63.2731C10.5913 57.407 15.2369 52.7383 21.0911 50.2881L22.6662 49.6478L30.9067 69.2406" stroke="#939598" stroke-width="1.28057" stroke-miterlimit="10"/>
</g>
<path id="Vector_20" d="M50.3265 77.0009L49.6863 78.5184C48.467 81.4657 46.6727 84.1405 44.408 86.3865C42.1433 88.6325 39.4537 90.4047 36.4963 91.5994L31.8671 93.4819L29.9462 88.8974C27.5229 83.0339 27.5229 76.4488 29.9462 70.5852L30.5865 69.0037L50.3265 77.0009Z" fill="#E6E7E8" stroke="#939598" stroke-width="1.28057" stroke-miterlimit="10"/>
<g id="Vector_21">
<path d="M69.5544 68.7668L70.1946 70.2843C71.4136 73.2304 72.0329 76.3899 72.0164 79.5781C71.9999 82.7663 71.3479 85.9193 70.0986 88.8526L68.1777 93.4243L63.5997 91.5034C57.7432 89.0634 53.0908 84.4041 50.6595 78.544L50.0192 76.9689L69.612 68.7284" fill="#E6E7E8"/>
<path d="M69.5544 68.7668L70.1946 70.2843C71.4136 73.2304 72.0329 76.3899 72.0164 79.5781C71.9999 82.7663 71.3479 85.9193 70.0986 88.8526L68.1777 93.4243L63.5997 91.5034C57.7432 89.0634 53.0908 84.4041 50.6595 78.544L50.0192 76.9689L69.612 68.7284" stroke="#939598" stroke-width="1.28057" stroke-miterlimit="10"/>
</g>
<g id="Vector_22">
<path d="M77.3274 49.3469L78.8449 49.9872C81.7941 51.2086 84.47 53.0059 86.7161 55.274C88.9622 57.5421 90.7334 60.2354 91.926 63.1963L93.7764 67.8064L89.192 69.6952C83.3291 72.122 76.7426 72.122 70.8798 69.6952L69.2982 69.0549L77.3274 49.3789" fill="#E6E7E8"/>
<path d="M77.3274 49.3469L78.8449 49.9872C81.7941 51.2086 84.47 53.0059 86.7161 55.274C88.9622 57.5421 90.7334 60.2354 91.926 63.1963L93.7764 67.8064L89.192 69.6952C83.3291 72.122 76.7426 72.122 70.8798 69.6952L69.2982 69.0549L77.3274 49.3789" stroke="#939598" stroke-width="1.28057" stroke-miterlimit="10"/>
</g>
<path id="Vector_23" d="M69.0934 30.0935L70.6108 29.4532C73.5569 28.2343 76.7164 27.615 79.9047 27.6315C83.0929 27.6479 86.2458 28.2999 89.1791 29.5492L93.7508 31.4701L91.8299 36.0481C89.39 41.9047 84.7307 46.5571 78.8705 48.9883L77.2954 49.6286L69.0934 30.0935Z" fill="#E6E7E8" stroke="#939598" stroke-width="1.28057" stroke-miterlimit="10"/>
<path id="Vector_24" d="M49.6735 22.346L50.3137 20.8285C51.5351 17.8794 53.3325 15.2035 55.6006 12.9574C57.8687 10.7113 60.562 8.94008 63.5229 7.74746L68.1329 5.89703L70.0538 10.4815C72.4806 16.3444 72.4806 22.9308 70.0538 28.7937L69.4135 30.3752L49.6735 22.346Z" fill="#E6E7E8" stroke="#939598" stroke-width="1.28057" stroke-miterlimit="10"/>
<path id="Vector_25" d="M77.5 50C77.5 65.1878 65.1878 77.5 50 77.5C34.8122 77.5 22.5 65.1878 22.5 50C22.5 34.8122 34.8122 22.5 50 22.5C65.1878 22.5 77.5 34.8122 77.5 50Z" fill="#E6E7E8" stroke="#939598"/>
</g>
<g id="Icon">
<path id="Vector_26" d="M50.3394 49.0882C60.3048 49.0882 68.3834 41.0096 68.3834 31.0441C68.3834 21.0786 60.3048 13 50.3394 13C40.3739 13 32.2953 21.0786 32.2953 31.0441C32.2953 41.0096 40.3739 49.0882 50.3394 49.0882Z" fill="white"/>
<path id="Vector_27" d="M50.3393 53.5567C41.7618 53.5584 33.5362 56.967 27.4716 63.0329C21.407 69.0987 18 77.325 18 85.9025C18 86.7923 18.0458 87.669 18.1178 88.5195C27.2232 95.9258 38.6021 99.9691 50.3393 99.9691C62.0765 99.9691 73.4554 95.9258 82.5609 88.5195C82.6329 87.6428 82.6787 86.7661 82.6787 85.9025C82.6787 77.325 79.2717 69.0987 73.2071 63.0329C67.1425 56.967 58.9169 53.5584 50.3393 53.5567V53.5567Z" fill="white"/>
</g>
</g>
</svg>
